<!DOCTYPE svg PUBLIC "-//W3C//DTD SVG 20010904//EN" "http://www.w3.org/TR/2001/REC-SVG-20010904/DTD/svg10.dtd">
<svg version="1.0" xmlns="http://www.w3.org/2000/svg" width="392px" height="392px" viewBox="0 0 3920 3920" preserveAspectRatio="xMidYMid meet">
<g id="layer101" fill="#030d10" stroke="none">
 <path d="M1725 3904 c-458 -62 -835 -245 -1149 -560 -695 -695 -769 -1779 -174 -2571 400 -534 1093 -835 1756 -762 460 50 867 244 1190 569 422 423 632 1029 557 1607 -99 757 -599 1377 -1307 1622 -282 97 -601 132 -873 95z"/>
 </g>
<g id="layer102" fill="#1f373d" stroke="none">
 <path d="M1725 3904 c-458 -62 -835 -245 -1149 -560 -695 -695 -769 -1779 -174 -2571 400 -534 1093 -835 1756 -762 460 50 867 244 1190 569 422 423 632 1029 557 1607 -99 757 -599 1377 -1307 1622 -282 97 -601 132 -873 95z m748 -329 c38 -16 87 -77 87 -107 0 -20 -11 -23 -27 -7 -8 8 -19 -1 -41 -33 -17 -23 -59 -70 -93 -103 -110 -107 -119 -154 -120 -583 0 -169 -2 -332 -4 -362 -2 -30 -1 -75 1 -100 5 -40 10 -47 42 -62 28 -14 38 -15 44 -5 9 14 4 249 -11 472 -6 88 -8 185 -6 215 3 30 7 103 9 161 2 59 7 112 11 118 4 7 -1 21 -10 31 -19 21 -13 40 12 40 9 0 31 11 49 25 18 14 35 25 38 25 3 0 23 12 44 28 22 15 61 42 88 61 27 19 51 38 54 42 8 11 81 29 75 18 -4 -5 -13 -9 -22 -9 -17 0 -74 -40 -108 -75 -15 -16 -156 -131 -173 -141 -12 -7 -26 -378 -21 -525 4 -96 7 -249 8 -340 1 -191 1 -190 91 -230 30 -13 60 -29 65 -35 6 -6 33 -28 60 -49 99 -77 191 -180 229 -258 20 -41 36 -78 36 -81 0 -4 10 -28 21 -54 12 -26 28 -90 35 -142 7 -52 19 -144 27 -203 8 -60 12 -117 10 -128 -3 -11 2 -45 10 -77 21 -74 24 -224 7 -280 -10 -32 -36 -67 -92 -125 -43 -44 -78 -86 -78 -93 0 -23 -62 -138 -99 -182 -46 -55 -88 -81 -142 -88 -24 -3 -51 -8 -59 -11 -8 -3 -40 -9 -70 -14 -30 -4 -80 -13 -110 -18 -105 -21 -304 -16 -430 9 -142 28 -242 58 -235 70 3 6 -1 7 -9 4 -8 -3 -52 12 -98 34 -46 22 -99 43 -118 47 -19 3 -46 11 -60 18 -41 19 -130 97 -158 140 -15 22 -35 51 -45 66 -9 14 -16 33 -15 41 4 34 -16 140 -40 210 -13 41 -25 82 -25 90 0 8 -4 20 -8 26 -18 22 -22 180 -15 520 2 84 4 95 36 149 37 61 219 250 251 260 10 4 19 10 19 15 0 5 12 16 28 25 15 8 40 25 55 38 l28 24 -2 269 c-1 148 -1 283 -1 299 1 17 -5 109 -13 205 -8 96 -17 216 -19 265 -3 50 -7 97 -10 105 -4 8 -45 51 -91 94 -86 80 -155 166 -132 166 7 0 23 -14 37 -31 37 -46 107 -112 176 -164 l61 -47 6 -206 c4 -114 12 -227 17 -251 7 -27 10 -167 8 -357 -1 -172 1 -316 5 -320 4 -4 45 11 90 33 45 23 107 49 137 59 30 9 60 20 65 24 18 12 128 32 177 32 39 0 54 6 84 32 34 30 58 91 31 80 -22 -8 -34 29 -27 84 3 28 3 52 -1 52 -11 0 -22 51 -20 89 2 18 -2 37 -8 41 -6 3 -20 30 -30 58 -11 29 -16 50 -11 47 5 -3 12 0 16 6 4 7 16 -9 28 -39 28 -66 39 -76 20 -20 -73 226 -95 274 -125 283 -10 3 -20 12 -23 20 -3 8 -10 15 -16 15 -16 0 -12 -28 6 -38 24 -13 27 -69 4 -75 -9 -2 -22 4 -29 14 -7 13 -8 19 0 19 5 0 7 5 4 10 -4 6 -11 8 -16 5 -5 -4 -9 -2 -9 4 0 5 -8 17 -17 27 -13 13 -14 19 -5 22 6 2 12 13 12 25 0 20 0 20 -15 1 -14 -18 -14 -17 -15 14 0 29 3 32 30 32 23 0 41 -10 70 -42 22 -24 40 -38 40 -33 0 6 -10 44 -21 85 -14 49 -23 118 -26 197 -5 114 -4 123 13 129 24 7 24 7 130 78 84 56 197 110 208 99 2 -3 13 0 23 6 27 15 115 13 156 -4z m-483 -704 c0 -10 11 -29 24 -43 14 -13 28 -36 31 -51 6 -23 4 -27 -14 -27 -23 0 -46 34 -35 52 4 6 3 8 -4 4 -6 -3 -20 10 -33 30 -18 30 -19 38 -8 45 23 14 39 10 39 -10z"/>
 <path d="M2240 3516 c-14 -6 -28 -15 -31 -20 -4 -4 -11 -6 -17 -2 -6 3 -13 2 -17 -4 -3 -6 4 -10 17 -11 13 0 17 -3 10 -6 -6 -2 -9 -9 -6 -14 8 -13 34 9 34 28 0 8 4 12 8 9 11 -7 35 10 31 22 -3 6 -13 5 -29 -2z"/>
 <path d="M2281 3488 c-1 -10 -13 -19 -29 -23 -38 -8 -73 -55 -65 -86 l6 -24 -21 25 -21 25 -10 -25 c-5 -14 -10 -19 -10 -11 -1 8 7 23 16 33 28 31 25 49 -5 43 -26 -5 -26 -5 -4 6 12 7 22 18 22 25 0 10 -7 8 -22 -5 -13 -11 -34 -28 -47 -38 -20 -16 -22 -23 -12 -41 14 -26 14 -42 0 -42 -6 0 -9 7 -5 15 7 19 -1 19 -19 1 -16 -15 -15 -31 4 -65 10 -19 15 -21 22 -10 5 8 9 9 9 3 0 -18 -12 -25 -25 -14 -16 14 -23 -14 -21 -80 1 -30 -4 -56 -11 -61 -8 -8 -9 -18 -2 -36 6 -17 6 -30 0 -36 -15 -15 3 -88 78 -302 23 -69 50 -174 57 -225 8 -66 7 -167 -3 -183 -4 -6 -8 -25 -10 -41 -3 -31 -28 -66 -46 -66 -16 0 -146 -91 -162 -113 -11 -15 -11 -24 -2 -38 7 -11 18 -19 25 -19 8 0 10 -5 6 -12 -5 -7 -2 -9 8 -5 9 3 37 -1 64 -9 34 -10 51 -11 60 -3 10 8 19 7 36 -5 24 -17 63 -22 54 -7 -3 4 5 6 18 4 20 -4 24 0 29 31 8 47 -3 159 -15 167 -6 4 -5 8 3 11 8 3 10 10 4 24 -4 10 -7 23 -6 27 1 4 -5 15 -13 22 -11 11 -15 12 -19 2 -2 -6 -6 0 -9 14 -4 22 -2 25 18 21 20 -4 23 1 30 54 10 78 10 205 2 399 -3 88 -3 194 1 235 9 86 6 106 -15 89 -8 -7 -11 -21 -8 -34 3 -13 1 -32 -5 -42 -9 -16 -10 -15 -11 7 0 20 -2 22 -11 10 -8 -12 -10 -9 -6 12 3 20 0 25 -12 22 -9 -2 -5 1 9 8 67 35 82 50 76 82 -4 21 -3 26 3 17 8 -12 11 -8 17 15 4 16 18 42 31 58 18 21 21 31 12 37 -8 5 -2 9 17 11 16 2 29 8 29 14 0 13 30 44 44 44 16 0 33 37 21 45 -5 3 -10 17 -10 31 0 38 -37 32 -49 -8 l-9 -33 -1 29 c-1 27 -3 28 -35 23 -22 -3 -37 -1 -40 6 -2 7 -5 4 -5 -5z m30 -35 c0 -5 2 -18 5 -30 6 -32 -2 -28 -15 7 -6 18 -6 30 0 30 5 0 9 -3 10 -7z m-189 -68 c0 -25 -1 -48 -2 -52 -2 -5 -2 -12 -1 -16 1 -5 -3 -6 -9 -2 -6 3 -8 11 -5 16 3 5 2 25 -4 45 -7 26 -7 40 2 49 17 18 20 12 19 -40z m173 -17 c0 -32 -4 -42 -19 -44 -10 -1 -22 -8 -26 -14 -5 -8 -10 -9 -14 -2 -3 6 3 13 14 17 14 4 22 18 26 46 9 51 20 50 19 -3z m-79 -164 c-3 -9 -6 -22 -6 -30 0 -9 -4 -13 -9 -9 -5 3 -12 -3 -14 -12 -3 -11 -5 -7 -6 10 -1 17 3 26 9 22 9 -6 14 8 11 28 0 4 4 7 10 7 6 0 8 -7 5 -16z m-81 -24 c7 0 15 -9 18 -20 6 -24 3 -25 -23 -3 -11 10 -20 24 -19 33 0 10 2 11 6 3 2 -7 11 -13 18 -13z"/>
 <path d="M1996 3140 c11 -56 25 -82 18 -32 -4 26 -1 48 6 57 9 11 8 14 -9 12 -19 -1 -20 -6 -15 -37z"/>
 <path d="M1882 2194 c-34 -8 -76 -21 -92 -29 -16 -8 -35 -15 -43 -15 -7 0 -42 -14 -78 -31 -35 -17 -73 -35 -84 -40 -22 -10 -31 -15 -120 -73 -51 -34 -238 -206 -210 -194 32 14 147 74 190 99 73 43 206 106 240 115 17 4 39 13 51 20 11 8 46 23 77 33 44 16 57 17 57 7 0 -8 -8 -16 -17 -20 -10 -3 -33 -15 -52 -26 -33 -21 -84 -42 -148 -61 -18 -5 -64 -28 -103 -49 -38 -22 -72 -40 -75 -40 -4 0 -23 -14 -44 -30 -43 -35 -137 -74 -154 -64 -7 4 -9 4 -5 -1 5 -5 -10 -16 -31 -26 -26 -11 -44 -29 -54 -51 -26 -57 -30 -80 -16 -89 11 -7 12 -12 2 -29 -22 -34 -14 -41 20 -18 17 13 34 24 37 26 2 2 -1 7 -8 11 -10 6 -10 11 3 21 13 11 14 10 8 -6 -5 -14 5 -9 38 16 24 20 62 48 84 62 22 15 48 41 58 57 10 17 23 28 31 25 7 -3 20 2 29 10 9 9 19 16 24 16 4 0 39 16 76 35 38 19 73 35 79 35 6 0 19 6 27 13 9 8 32 20 51 27 44 17 203 110 212 123 7 11 -12 47 -25 47 -4 0 -5 -5 -1 -12 4 -7 3 -8 -4 -4 -7 4 -12 14 -12 22 0 8 -6 14 -12 14 -7 1 9 21 37 45 53 48 52 49 -43 29z"/>
 <path d="M2280 2153 c0 -27 -3 -71 -6 -99 -6 -47 -4 -53 22 -80 16 -16 54 -48 84 -71 30 -23 79 -62 108 -87 50 -43 52 -45 31 -57 -12 -6 -19 -7 -16 -2 2 4 1 18 -4 30 -6 16 -13 21 -25 16 -13 -5 -15 -3 -9 7 5 9 4 11 -3 6 -7 -4 -26 7 -45 26 -51 51 -144 118 -152 110 -5 -4 -6 -2 -2 3 3 6 2 17 -4 25 -7 12 -9 12 -9 1 0 -11 -3 -11 -15 -1 -8 7 -13 16 -10 20 3 5 -4 6 -14 3 -31 -8 -6 -36 107 -121 117 -87 157 -121 157 -133 0 -8 5 -14 10 -14 6 0 34 -25 63 -55 28 -30 63 -67 78 -81 17 -17 24 -32 19 -40 -5 -8 -5 -11 0 -7 4 4 29 -21 55 -56 64 -86 214 -230 218 -210 2 8 -7 28 -20 44 -129 159 -182 222 -207 246 -16 15 -32 38 -36 51 -3 13 -11 23 -19 23 -7 0 -19 11 -26 25 -7 13 -16 22 -20 20 -7 -4 -60 49 -60 60 0 10 20 4 39 -12 11 -9 17 -21 14 -26 -3 -6 -2 -7 4 -4 16 10 133 -113 208 -218 19 -28 41 -59 50 -70 9 -11 25 -32 36 -47 11 -16 24 -28 28 -28 7 0 -7 124 -28 234 -16 86 -113 275 -175 342 -74 80 -160 145 -254 192 -44 22 -94 49 -111 61 -48 34 -61 28 -61 -26z"/>
 <path d="M1965 2040 c3 -5 -7 -15 -22 -22 -15 -7 -46 -26 -68 -43 -34 -27 -175 -99 -330 -171 -22 -10 -65 -39 -95 -64 -69 -57 -116 -90 -129 -90 -6 0 -14 -6 -18 -13 -4 -6 -24 -24 -43 -38 -86 -65 -134 -124 -139 -174 -2 -22 -3 -109 -3 -194 1 -141 2 -157 22 -183 13 -17 19 -36 15 -48 -3 -10 -1 -21 5 -25 6 -4 10 4 10 18 0 36 69 126 128 167 54 37 123 62 177 66 65 5 245 -72 229 -97 -3 -5 1 -6 9 -4 17 7 104 -69 112 -98 4 -12 15 -40 24 -62 39 -86 31 -197 -19 -294 -23 -44 -106 -131 -126 -131 -8 0 -22 -9 -31 -20 -10 -11 -33 -25 -53 -31 -19 -7 -44 -18 -54 -25 -17 -12 -14 -15 39 -38 32 -15 63 -26 69 -26 7 0 16 -4 21 -9 6 -6 69 -24 140 -42 123 -31 140 -33 315 -33 158 0 200 3 285 23 55 12 118 26 140 30 22 5 54 16 70 26 70 41 178 234 118 211 -31 -12 -160 -19 -226 -12 -63 7 -68 10 -133 71 -38 36 -73 61 -81 58 -9 -3 -22 14 -39 52 -22 51 -25 74 -27 179 -1 67 1 141 5 165 10 56 58 129 109 163 36 24 131 58 204 72 56 11 168 7 181 -7 4 -4 14 -7 23 -7 9 0 -2 18 -31 48 -41 43 -128 155 -128 166 0 5 -85 99 -136 150 -52 52 -82 77 -128 108 -20 14 -58 45 -84 69 -116 108 -149 129 -228 149 -90 23 -87 23 -79 10z m43 -326 c79 -7 83 -26 5 -23 -105 5 -131 1 -138 -20 -15 -49 -84 -28 -72 21 6 22 12 24 74 26 37 1 96 -1 131 -4z m232 -741 c-1 -33 -78 -71 -174 -85 -74 -10 -89 -10 -129 6 -52 20 -72 39 -63 62 5 14 10 13 40 -5 65 -40 182 -36 273 9 42 21 53 24 53 13z"/>
 <path d="M1137 1576 c-4 -15 -6 -31 -2 -34 10 -10 16 6 13 35 l-3 28 -8 -29z"/>
 <path d="M2549 1311 c-59 -12 -152 -52 -182 -80 -15 -14 -39 -50 -54 -81 -24 -51 -26 -65 -26 -186 -1 -146 4 -161 70 -218 18 -16 33 -35 33 -42 0 -7 6 -11 14 -8 8 3 19 -3 24 -13 6 -10 34 -27 62 -37 43 -15 71 -18 159 -14 65 3 116 11 129 19 29 18 80 108 98 173 8 28 19 120 24 204 l10 153 -26 34 c-14 18 -32 36 -40 39 -7 3 -14 10 -14 17 0 6 7 8 16 5 9 -3 12 -2 9 5 -4 6 -14 8 -22 5 -8 -3 -41 3 -73 14 -60 20 -141 24 -211 11z m-80 -300 c11 -20 -2 -86 -20 -97 -18 -10 -47 26 -52 64 -2 20 -2 40 0 45 9 15 62 7 72 -12z m231 -211 c0 -5 -17 -17 -37 -27 -21 -9 -41 -19 -45 -21 -5 -2 -8 6 -8 18 0 13 5 20 12 18 7 -3 24 1 38 9 30 15 40 16 40 3z"/>
 <path d="M1381 1160 c-85 -39 -138 -87 -160 -143 -35 -96 -35 -133 2 -215 49 -109 207 -294 264 -308 51 -13 186 46 260 114 66 61 102 178 84 274 -11 64 -51 149 -84 182 -34 33 -117 83 -167 100 -62 22 -145 20 -199 -4z m277 -160 c15 -25 -5 -93 -29 -98 -24 -4 -54 90 -37 117 9 15 16 17 33 9 12 -5 26 -18 33 -28z m-158 -262 c0 -18 -24 -18 -44 1 -12 12 -28 21 -34 21 -13 0 -16 13 -6 23 7 7 84 -34 84 -45z"/>
 <path d="M2938 984 c-4 -67 -14 -123 -31 -174 -14 -41 -24 -76 -22 -78 1 -2 20 21 41 50 l39 52 0 106 c0 146 -20 178 -27 44z"/>
 <path d="M1210 733 c0 -5 13 -33 28 -63 18 -36 35 -56 48 -58 12 -2 27 -16 35 -34 8 -17 31 -42 52 -55 l38 -24 -17 26 c-9 14 -19 25 -23 25 -10 0 -111 127 -111 140 0 5 -4 10 -9 10 -5 0 -13 9 -16 20 -6 19 -25 29 -25 13z"/>
 <path d="M2016 2793 c-4 -9 -3 -20 2 -25 6 -6 10 1 10 16 0 30 -3 32 -12 9z"/>
 </g>
<g id="layer103" fill="#508a95" stroke="none">
 <path d="M1725 3904 c-458 -62 -835 -245 -1149 -560 -695 -695 -769 -1779 -174 -2571 400 -534 1093 -835 1756 -762 460 50 867 244 1190 569 422 423 632 1029 557 1607 -99 757 -599 1377 -1307 1622 -282 97 -601 132 -873 95z m750 -326 c36 -19 74 -60 80 -89 8 -36 -2 -54 -20 -39 -10 8 -19 3 -36 -22 -13 -18 -54 -63 -92 -100 -115 -114 -132 -190 -123 -538 3 -124 2 -284 -3 -356 -11 -173 -9 -184 39 -211 l39 -21 6 53 c4 30 1 132 -6 227 -14 177 -18 460 -8 625 3 51 1 97 -4 102 -12 12 1 51 18 51 23 0 159 86 257 162 33 26 108 50 108 35 0 -3 -19 -15 -42 -25 -24 -10 -72 -46 -108 -80 -36 -34 -68 -62 -72 -62 -18 0 -92 -74 -94 -93 -1 -12 -7 -71 -14 -132 -11 -107 -7 -735 6 -847 6 -47 6 -47 75 -79 38 -18 69 -36 69 -39 0 -4 11 -12 24 -18 14 -6 71 -56 129 -111 109 -105 144 -158 193 -290 26 -70 72 -352 79 -481 2 -41 9 -88 16 -105 7 -17 12 -79 13 -145 1 -100 -2 -120 -21 -155 -21 -39 -128 -155 -143 -155 -4 0 -12 -19 -18 -43 -10 -38 -62 -132 -102 -184 -34 -43 -86 -72 -150 -83 -36 -6 -94 -18 -130 -26 -272 -66 -623 -24 -882 106 -42 21 -93 41 -115 45 -21 3 -52 14 -70 23 -42 23 -130 107 -148 143 -9 16 -19 29 -24 29 -15 0 -31 53 -40 140 -5 50 -23 125 -43 180 -38 106 -42 150 -40 365 4 301 5 315 36 374 45 87 263 296 363 349 l22 12 -5 358 c-3 196 -7 371 -9 387 -2 17 -9 113 -16 215 l-12 185 -102 100 c-101 98 -146 157 -132 172 4 4 51 -37 104 -91 53 -53 116 -109 140 -123 39 -23 43 -28 44 -66 4 -184 9 -278 19 -377 6 -63 11 -245 11 -405 -1 -159 3 -296 8 -303 6 -10 30 -3 110 32 55 25 106 46 112 46 6 0 25 6 42 14 48 22 158 46 207 46 37 0 48 5 83 41 l40 41 -26 22 c-22 19 -25 28 -21 58 4 20 -1 59 -10 91 -9 30 -16 65 -16 78 0 39 -68 176 -132 269 -95 136 -115 183 -87 201 27 17 50 9 93 -31 l44 -41 -24 93 c-18 71 -24 118 -24 205 0 105 1 113 19 113 11 0 23 5 26 10 8 13 109 80 145 96 8 4 24 15 35 24 20 17 84 41 160 59 44 11 118 5 150 -11z"/>
 <path d="M2393 3474 c-3 -8 -1 -20 6 -27 8 -8 11 -4 11 16 0 30 -7 35 -17 11z"/>
 <path d="M2234 3418 c-8 -16 -13 -36 -10 -44 3 -8 1 -14 -5 -14 -14 0 -1 -61 17 -80 12 -12 14 -12 14 3 0 9 -4 17 -10 17 -5 0 -10 7 -10 16 0 8 4 13 9 10 5 -3 12 1 15 10 4 10 2 13 -6 8 -8 -5 -9 1 -4 22 4 16 12 31 17 32 5 2 9 8 9 13 0 6 -4 7 -10 4 -5 -3 -10 0 -10 8 0 10 7 13 20 10 11 -3 20 -1 20 4 0 5 -9 9 -20 10 -13 1 -26 -9 -36 -29z"/>
 <path d="M2337 3436 c-10 -8 -16 -20 -15 -27 2 -8 -3 -13 -9 -11 -7 1 -13 -3 -13 -9 0 -14 30 -43 48 -45 11 -2 12 0 3 9 -6 6 -11 25 -11 42 0 23 3 26 10 15 8 -12 10 -9 10 13 0 31 1 31 -23 13z"/>
 <path d="M2146 3352 c20 -13 27 -52 12 -69 -7 -9 -8 -14 -2 -10 7 4 14 -3 16 -17 5 -24 4 -24 -17 -8 -17 13 -21 25 -19 54 1 22 -2 36 -7 33 -5 -4 -9 -15 -9 -26 0 -14 -4 -18 -12 -13 -9 5 -9 2 1 -9 7 -9 10 -17 6 -17 -5 0 8 -17 29 -37 30 -30 39 -35 46 -23 5 8 5 20 1 28 -5 9 -2 27 7 45 15 31 7 62 -16 62 -6 0 -14 3 -18 8 -4 4 -12 7 -18 7 -8 0 -8 -3 0 -8z"/>
 <path d="M2205 3269 c-4 -11 -4 -23 -1 -26 3 -4 6 1 6 11 0 9 5 14 10 11 6 -3 10 -2 10 4 0 20 -19 21 -25 0z"/>
 <path d="M2080 3231 c-15 -28 -12 -41 8 -40 10 0 12 3 5 6 -7 2 -13 9 -13 14 0 6 4 7 10 4 6 -4 7 1 3 11 -5 13 -3 15 7 9 9 -5 11 -4 6 3 -10 16 -14 15 -26 -7z"/>
 <path d="M2152 3167 c3 -48 12 -50 23 -6 4 17 1 30 -10 39 -14 11 -15 8 -13 -33z"/>
 <path d="M2049 3171 c14 -25 20 -27 17 -4 -2 9 -8 19 -15 21 -10 3 -10 0 -2 -17z"/>
 <path d="M2096 3163 c-4 -9 -2 -21 4 -27 7 -7 10 -2 10 17 0 31 -5 34 -14 10z"/>
 <path d="M2221 3093 c-1 -26 2 -42 7 -39 14 9 20 75 7 80 -7 2 -12 -13 -14 -41z"/>
 <path d="M2057 3104 c-9 -10 -9 -24 1 -23 19 3 25 -2 12 -11 -12 -7 -13 -13 -4 -28 9 -14 9 -26 -1 -48 l-13 -30 34 15 c34 15 45 31 22 31 -10 0 -9 3 1 9 7 5 10 14 6 21 -6 9 -9 9 -16 -1 -6 -9 -9 -1 -9 24 0 21 -4 36 -9 33 -5 -4 -11 -1 -13 5 -2 5 -7 7 -11 3z"/>
 <path d="M2100 3086 c0 -16 27 -29 35 -16 3 5 -4 14 -15 20 -16 8 -20 8 -20 -4z"/>
 <path d="M2198 3006 c-22 -8 -28 -16 -28 -40 0 -28 -1 -29 -15 -10 -8 10 -15 15 -15 9 0 -5 -4 -4 -9 4 -6 9 -14 10 -22 5 -8 -5 -18 -9 -23 -9 -5 0 -14 -8 -19 -17 -8 -13 -2 -43 26 -126 20 -60 37 -117 37 -126 0 -11 5 -14 12 -10 8 5 9 2 4 -11 -3 -10 0 -27 8 -39 8 -13 16 -66 21 -133 6 -97 9 -111 24 -107 9 3 5 -2 -9 -10 -14 -8 -20 -16 -15 -16 6 0 19 -3 30 -6 16 -4 21 0 23 20 1 14 -3 28 -8 31 -6 3 -10 16 -9 28 0 21 1 21 8 3 7 -19 8 -19 13 1 4 14 0 24 -10 28 -13 5 -13 7 3 18 16 12 17 31 9 268 l-9 255 -27 -10z m-104 -109 c4 -19 3 -26 -4 -22 -5 3 -10 18 -10 32 0 32 5 28 14 -10z m45 -81 c0 -6 -5 -20 -10 -31 -8 -17 -8 -16 -4 7 3 15 1 30 -5 33 -5 3 -10 14 -10 23 1 15 2 15 15 -2 8 -11 15 -25 14 -30z m62 -79 c-8 -8 -11 -7 -11 4 0 20 13 34 18 19 3 -7 -1 -17 -7 -23z"/>
 <path d="M1998 2897 c15 -30 29 -54 30 -52 8 8 -20 74 -38 90 -16 15 -15 8 8 -38z"/>
 <path d="M2164 2323 c-16 -52 -28 -66 -69 -84 -25 -11 -45 -24 -45 -28 0 -5 -14 -14 -30 -21 -17 -7 -37 -22 -46 -34 -8 -11 -17 -20 -19 -18 -17 8 -14 -1 6 -16 15 -13 19 -21 11 -26 -7 -4 -12 -2 -12 3 0 6 -5 11 -11 11 -8 0 -8 -5 1 -15 16 -19 54 -20 47 -2 -7 18 15 18 31 0 10 -10 9 -13 -5 -13 -13 0 -9 -5 11 -15 32 -17 66 -20 66 -5 0 10 -15 14 -34 11 -5 -1 -4 5 3 13 7 9 23 14 35 12 11 -3 28 -5 38 -5 11 -1 15 -7 10 -23 -3 -14 -2 -19 6 -14 8 4 12 0 12 -10 0 -16 1 -16 14 1 8 11 12 24 9 29 -3 5 0 6 8 4 8 -3 13 -11 11 -18 -1 -6 3 -10 10 -8 18 6 24 44 20 116 -3 51 -7 62 -18 58 -9 -3 -12 -1 -9 4 3 6 1 10 -5 10 -6 0 -8 10 -4 25 5 19 2 25 -10 25 -9 0 -16 -5 -16 -12 0 -6 -3 -8 -6 -5 -4 4 -1 13 6 22 10 12 10 15 0 15 -10 0 -10 3 0 15 9 11 9 15 1 15 -6 0 -14 -8 -17 -17z m-119 -164 c-7 -10 -35 -1 -35 11 0 5 9 6 20 3 11 -3 17 -9 15 -14z m175 -1 c0 -16 -3 -19 -11 -11 -6 6 -8 16 -5 22 11 17 16 13 16 -11z m-160 -18 c-12 -23 -26 -26 -36 -7 -4 6 -4 9 1 5 4 -4 14 -1 22 7 20 21 26 19 13 -5z"/>
 <path d="M1862 2184 c-28 -6 -57 -16 -64 -21 -7 -6 -28 -13 -46 -16 -43 -9 -202 -85 -202 -97 0 -6 -5 -10 -12 -10 -16 0 -136 -79 -151 -99 -7 -9 -36 -36 -64 -60 -29 -24 -53 -48 -53 -52 0 -9 96 36 120 56 24 20 219 119 280 142 152 57 193 77 197 94 3 11 11 19 17 19 7 0 25 13 41 29 32 34 26 36 -63 15z"/>
 <path d="M2277 2098 l-5 -93 44 -42 c24 -23 60 -53 81 -67 21 -13 56 -41 77 -60 22 -20 44 -36 48 -36 5 0 6 -4 3 -10 -3 -5 -2 -10 2 -10 8 0 98 -75 115 -95 4 -5 26 -30 49 -55 39 -43 108 -129 139 -174 33 -49 73 -97 76 -93 6 5 -23 196 -38 256 -11 43 -37 106 -59 141 -5 8 -18 34 -29 57 -26 53 -106 141 -190 208 -64 51 -79 60 -192 116 -31 15 -59 33 -63 38 -3 6 -17 11 -29 11 -23 0 -24 -4 -29 -92z"/>
 <path d="M1883 2082 c-6 -4 -10 -20 -9 -35 2 -15 0 -27 -5 -27 -4 0 -14 -3 -23 -6 -11 -4 -16 -1 -16 10 0 9 -6 16 -14 16 -16 0 -66 -45 -66 -60 0 -5 -7 -10 -15 -10 -9 0 -12 6 -9 15 4 8 10 12 15 9 5 -3 9 0 9 5 0 14 -1 14 -44 -4 -37 -16 -45 -28 -24 -41 6 -4 8 -3 5 3 -4 6 -1 13 7 16 8 3 17 -1 20 -9 3 -8 2 -14 -3 -14 -4 0 -8 -6 -8 -14 0 -17 26 -7 97 36 25 15 60 34 78 42 17 8 32 20 32 25 0 6 7 11 17 11 13 0 11 4 -7 20 -13 11 -23 20 -24 20 -1 0 -6 -4 -13 -8z"/>
 <path d="M1960 2025 c-7 -8 -18 -15 -24 -15 -7 0 -28 -14 -46 -30 -29 -26 -184 -110 -203 -110 -4 0 -25 -11 -47 -25 -22 -14 -60 -33 -85 -43 -24 -9 -73 -42 -110 -72 -36 -30 -78 -62 -93 -70 -43 -24 -165 -126 -193 -162 -36 -47 -57 -206 -41 -307 7 -38 12 -83 12 -100 0 -16 7 -36 15 -45 8 -8 15 -27 16 -43 0 -23 3 -20 16 20 32 94 173 195 286 205 64 5 156 -24 222 -70 26 -18 54 -37 64 -43 27 -17 81 -79 81 -95 1 -23 39 -88 40 -67 0 22 25 22 49 -2 25 -25 95 -34 162 -21 54 11 121 39 127 53 2 4 10 7 17 7 7 0 15 -3 18 -7 2 -5 3 -3 2 2 -2 6 2 47 9 90 12 86 42 149 93 197 45 43 195 88 301 90 48 1 98 -2 112 -5 14 -4 19 -4 13 -1 -7 3 -40 40 -73 82 -33 42 -65 82 -70 89 -6 7 -10 15 -10 19 0 20 -213 229 -270 265 -14 9 -39 29 -56 45 -52 48 -158 140 -172 148 -10 6 -135 36 -148 36 -1 0 -7 -7 -14 -15z m114 -316 c19 -17 -6 -23 -84 -20 -80 2 -120 -9 -120 -34 0 -16 -35 -29 -51 -20 -15 10 -29 52 -23 69 4 11 26 16 72 19 86 4 194 -3 206 -14z"/>
 <path d="M2227 1965 c20 -19 41 -31 46 -28 6 3 7 1 4 -4 -6 -10 52 -63 68 -63 3 0 17 -11 30 -24 12 -13 40 -34 62 -47 21 -12 41 -28 45 -33 5 -7 8 -5 8 5 0 9 -12 22 -27 30 -14 8 -47 33 -72 56 -25 24 -50 43 -54 43 -5 0 -20 14 -34 30 -13 17 -29 28 -33 25 -5 -3 -22 6 -38 20 -44 37 -48 30 -5 -10z"/>
 <path d="M1623 1963 c-7 -2 -13 -18 -13 -34 0 -19 -6 -31 -17 -35 -10 -3 -25 -9 -34 -14 -12 -6 -14 -3 -11 22 l5 30 -26 -17 c-25 -16 -27 -41 -4 -56 5 -4 5 -9 -2 -13 -6 -4 -11 -2 -11 5 0 8 -4 8 -15 -1 -9 -7 -19 -10 -22 -6 -4 4 -3 10 2 14 14 10 17 32 5 32 -5 0 -10 -5 -10 -10 0 -6 -16 -18 -35 -27 -19 -9 -35 -22 -35 -29 0 -15 -25 -25 -44 -18 -8 3 -17 0 -22 -7 -5 -9 -2 -10 9 -6 8 3 21 -1 27 -9 10 -11 10 -14 1 -14 -7 0 -9 -5 -5 -12 5 -7 2 -9 -9 -5 -15 6 -26 -4 -79 -74 -10 -12 -15 -25 -12 -28 3 -3 10 2 15 12 6 9 23 24 40 32 17 9 27 21 23 27 -4 7 -3 8 4 4 12 -7 55 29 63 53 3 8 16 14 29 15 23 1 43 26 20 26 -6 0 -8 -4 -5 -10 3 -5 1 -10 -4 -10 -13 0 -14 10 -2 28 6 11 13 11 27 3 16 -9 36 -3 113 36 52 27 97 55 99 62 3 8 0 11 -6 8 -5 -4 -12 2 -15 13 -5 19 -19 24 -44 13z"/>
 <path d="M1231 1764 c-26 -13 -53 -59 -65 -107 -4 -19 -3 -26 4 -22 5 3 10 14 10 23 0 9 5 24 10 32 7 11 8 9 6 -11 -1 -13 -6 -31 -10 -38 -11 -17 2 -27 16 -13 7 7 12 30 13 52 0 22 4 40 8 40 4 0 10 0 15 0 4 0 2 -4 -5 -8 -8 -5 -8 -12 2 -25 12 -16 14 -15 39 13 29 35 33 55 14 67 -19 11 -31 11 -57 -3z m48 -19 c11 17 12 17 7 2 -3 -10 -6 -22 -6 -27 0 -4 -7 -10 -15 -14 -12 -4 -15 3 -14 32 1 32 2 34 8 12 7 -24 7 -24 20 -5z"/>
 <path d="M2510 1735 c0 -9 6 -12 15 -9 8 4 12 10 9 15 -8 14 -24 10 -24 -6z"/>
 <path d="M2563 1685 c4 -9 7 -21 7 -26 0 -4 7 -6 15 -3 10 4 15 0 15 -14 0 -11 14 -32 30 -45 17 -14 30 -32 30 -40 0 -19 44 -59 55 -50 4 5 6 3 2 -2 -7 -13 8 -39 23 -41 5 -1 15 -2 21 -3 5 0 7 -6 4 -11 -4 -6 -11 -8 -16 -5 -5 3 -6 0 -3 -7 7 -15 174 -162 174 -153 0 20 -99 132 -112 127 -5 -1 -8 6 -8 16 0 9 -10 28 -23 42 -13 14 -26 33 -30 43 -3 9 -13 17 -20 17 -8 0 -19 11 -25 25 -6 13 -23 27 -38 31 -19 5 -22 9 -13 15 11 6 6 17 -21 44 -19 19 -44 40 -54 46 -16 10 -18 9 -13 -6z"/>
 <path d="M1171 1588 l-14 -23 24 20 c13 11 26 21 28 22 2 2 -2 3 -10 3 -8 0 -20 -10 -28 -22z"/>
 <path d="M2566 1309 c-75 -12 -182 -57 -209 -87 -8 -9 -27 -45 -41 -79 -22 -54 -26 -77 -26 -165 1 -134 11 -176 52 -212 18 -15 51 -45 73 -66 56 -53 124 -73 222 -67 123 7 153 20 186 79 46 82 68 168 73 286 2 59 6 123 9 142 6 38 -19 82 -66 118 -61 47 -172 68 -273 51z m-98 -291 c15 -15 15 -50 0 -83 -23 -50 -73 -16 -74 53 -1 41 -1 42 30 42 18 0 37 -5 44 -12z m242 -216 c0 -12 -88 -54 -100 -47 -18 11 -6 28 31 41 40 14 69 17 69 6z"/>
 <path d="M1398 1162 c-25 -9 -73 -38 -105 -63 -52 -40 -61 -53 -77 -107 -24 -77 -18 -127 23 -213 33 -71 143 -205 206 -254 50 -37 84 -35 184 11 90 41 111 60 159 139 36 58 37 63 37 155 0 86 -3 101 -30 154 -44 86 -140 158 -244 182 -71 17 -95 16 -153 -4z m254 -153 c17 -22 18 -31 9 -66 -16 -59 -38 -62 -61 -10 -23 49 -25 78 -8 95 18 18 38 11 60 -19z m-187 -241 c19 -13 35 -29 35 -35 0 -18 -39 -16 -46 2 -4 8 -14 15 -24 15 -22 0 -34 15 -25 30 9 15 22 12 60 -12z"/>
 <path d="M2939 990 c0 -67 -20 -168 -44 -225 -19 -44 22 5 50 60 26 52 27 62 22 137 -7 108 -27 128 -28 28z"/>
 <path d="M2236 952 c-19 -31 -143 -72 -220 -72 -53 0 -126 18 -126 32 0 4 -4 8 -9 8 -5 0 -7 -23 -4 -53 7 -71 -25 -176 -74 -244 -42 -56 -110 -107 -186 -138 -27 -11 -49 -24 -49 -30 -1 -5 35 -25 80 -43 189 -76 407 -110 607 -92 123 11 362 57 382 74 18 14 75 72 90 90 15 18 55 116 47 116 -2 0 -48 -5 -100 -11 -144 -16 -193 -3 -269 71 -33 32 -71 60 -84 62 -30 4 -49 52 -65 163 -7 48 -15 75 -20 67z"/>
 <path d="M1225 710 c13 -47 47 -99 61 -93 11 4 9 12 -9 35 -12 16 -30 42 -40 56 l-19 27 7 -25z"/>
 <path d="M1320 582 c0 -9 30 -38 65 -62 11 -8 2 5 -20 28 -41 44 -45 47 -45 34z"/>
 </g>

</svg>