<!DOCTYPE svg PUBLIC "-//W3C//DTD SVG 20010904//EN" "http://www.w3.org/TR/2001/REC-SVG-20010904/DTD/svg10.dtd">
<svg version="1.0" xmlns="http://www.w3.org/2000/svg" width="32px" height="32px" viewBox="0 0 32 32" preserveAspectRatio="xMidYMid meet">
 <g id="layer101" fill="#030d10" stroke="none">
  <path d="M14.0816 31.8694 c-3.7388 -0.5061 -6.8163 -2 -9.3796 -4.5714 -5.6735 -5.6735 -6.2776 -14.5224 -1.4204 -20.9878 3.2653 -4.3592 8.9224 -6.8163 14.3347 -6.2204 3.7551 0.4082 7.0776 1.9918 9.7143 4.6449 3.4449 3.4531 5.1592 8.4 4.5469 13.1184 -0.8082 6.1796 -4.8898 11.2408 -10.6694 13.2408 -2.302 0.7918 -4.9061 1.0776 -7.1265 0.7755z"/>
</g>
 <g id="layer102" fill="#1f373d" stroke="none">
  <path d="M14.0816 31.8694 c-3.7388 -0.5061 -6.8163 -2 -9.3796 -4.5714 -5.6735 -5.6735 -6.2776 -14.5224 -1.4204 -20.9878 3.2653 -4.3592 8.9224 -6.8163 14.3347 -6.2204 3.7551 0.4082 7.0776 1.9918 9.7143 4.6449 3.4449 3.4531 5.1592 8.4 4.5469 13.1184 -0.8082 6.1796 -4.8898 11.2408 -10.6694 13.2408 -2.302 0.7918 -4.9061 1.0776 -7.1265 0.7755z m6.1061 -2.6857 c0.3102 -0.1306 0.7102 -0.6286 0.7102 -0.8735 0 -0.1633 -0.0898 -0.1878 -0.2204 -0.0571 -0.0653 0.0653 -0.1551 -0.0082 -0.3347 -0.2694 -0.1388 -0.1878 -0.4816 -0.5714 -0.7592 -0.8408 -0.898 -0.8735 -0.9714 -1.2571 -0.9796 -4.7592 0 -1.3796 -0.0163 -2.7102 -0.0327 -2.9551 -0.0163 -0.2449 -0.0082 -0.6122 0.0082 -0.8163 0.0408 -0.3265 0.0816 -0.3837 0.3429 -0.5061 0.2286 -0.1143 0.3102 -0.1224 0.3592 -0.0408 0.0735 0.1143 0.0327 2.0327 -0.0898 3.8531 -0.049 0.7184 -0.0653 1.5102 -0.049 1.7551 0.0245 0.2449 0.0571 0.8408 0.0735 1.3143 0.0163 0.4816 0.0571 0.9143 0.0898 0.9633 0.0327 0.0571 -0.0082 0.1714 -0.0816 0.2531 -0.1551 0.1714 -0.1061 0.3265 0.098 0.3265 0.0735 0 0.2531 0.0898 0.4 0.2041 0.1469 0.1143 0.2857 0.2041 0.3102 0.2041 0.0245 0 0.1878 0.098 0.3592 0.2286 0.1796 0.1224 0.498 0.3429 0.7184 0.498 0.2204 0.1551 0.4163 0.3102 0.4408 0.3429 0.0653 0.0898 0.6612 0.2367 0.6122 0.1469 -0.0327 -0.0408 -0.1061 -0.0735 -0.1796 -0.0735 -0.1388 0 -0.6041 -0.3265 -0.8816 -0.6122 -0.1224 -0.1306 -1.2735 -1.0694 -1.4122 -1.151 -0.098 -0.0571 -0.2122 -3.0857 -0.1714 -4.2857 0.0327 -0.7837 0.0571 -2.0327 0.0653 -2.7755 0.0082 -1.5592 0.0082 -1.551 0.7429 -1.8776 0.2449 -0.1061 0.4898 -0.2367 0.5306 -0.2857 0.049 -0.049 0.2694 -0.2286 0.4898 -0.4 0.8082 -0.6286 1.5592 -1.4694 1.8694 -2.1061 0.1633 -0.3347 0.2939 -0.6367 0.2939 -0.6612 0 -0.0327 0.0816 -0.2286 0.1714 -0.4408 0.098 -0.2122 0.2286 -0.7347 0.2857 -1.1592 0.0571 -0.4245 0.1551 -1.1755 0.2204 -1.6571 0.0653 -0.4898 0.098 -0.9551 0.0816 -1.0449 -0.0245 -0.0898 0.0163 -0.3673 0.0816 -0.6286 0.1714 -0.6041 0.1959 -1.8286 0.0571 -2.2857 -0.0816 -0.2612 -0.2939 -0.5469 -0.751 -1.0204 -0.351 -0.3592 -0.6367 -0.702 -0.6367 -0.7592 0 -0.1878 -0.5061 -1.1265 -0.8082 -1.4857 -0.3755 -0.449 -0.7184 -0.6612 -1.1592 -0.7184 -0.1959 -0.0245 -0.4163 -0.0653 -0.4816 -0.0898 -0.0653 -0.0245 -0.3265 -0.0735 -0.5714 -0.1143 -0.2449 -0.0327 -0.6531 -0.1061 -0.898 -0.1469 -0.8571 -0.1714 -2.4816 -0.1306 -3.5102 0.0735 -1.1592 0.2286 -1.9755 0.4735 -1.9184 0.5714 0.0245 0.049 -0.0082 0.0571 -0.0735 0.0327 -0.0653 -0.0245 -0.4245 0.098 -0.8 0.2776 -0.3755 0.1796 -0.8082 0.351 -0.9633 0.3837 -0.1551 0.0245 -0.3755 0.0898 -0.4898 0.1469 -0.3347 0.1551 -1.0612 0.7918 -1.2898 1.1429 -0.1224 0.1796 -0.2857 0.4163 -0.3673 0.5388 -0.0735 0.1143 -0.1306 0.2694 -0.1224 0.3347 0.0327 0.2776 -0.1306 1.1429 -0.3265 1.7143 -0.1061 0.3347 -0.2041 0.6694 -0.2041 0.7347 0 0.0653 -0.0327 0.1633 -0.0653 0.2122 -0.1469 0.1796 -0.1796 1.4694 -0.1224 4.2449 0.0163 0.6857 0.0327 0.7755 0.2939 1.2163 0.302 0.498 1.7878 2.0408 2.049 2.1224 0.0816 0.0327 0.1551 0.0816 0.1551 0.1224 0 0.0408 0.098 0.1306 0.2286 0.2041 0.1224 0.0653 0.3265 0.2041 0.449 0.3102 l0.2286 0.1959 -0.0163 2.1959 c-0.0082 1.2082 -0.0082 2.3102 -0.0082 2.4408 0.0082 0.1388 -0.0408 0.8898 -0.1061 1.6735 -0.0653 0.7837 -0.1388 1.7633 -0.1551 2.1633 -0.0245 0.4082 -0.0571 0.7918 -0.0816 0.8571 -0.0327 0.0653 -0.3673 0.4163 -0.7429 0.7673 -0.702 0.6531 -1.2653 1.3551 -1.0776 1.3551 0.0571 0 0.1878 -0.1143 0.302 -0.2531 0.302 -0.3755 0.8735 -0.9143 1.4367 -1.3388 l0.498 -0.3837 0.049 -1.6816 c0.0327 -0.9306 0.098 -1.8531 0.1388 -2.049 0.0571 -0.2204 0.0816 -1.3633 0.0653 -2.9143 -0.0082 -1.4041 0.0082 -2.5796 0.0408 -2.6122 0.0327 -0.0327 0.3673 0.0898 0.7347 0.2694 0.3673 0.1878 0.8735 0.4 1.1184 0.4816 0.2449 0.0735 0.4898 0.1633 0.5306 0.1959 0.1469 0.098 1.0449 0.2612 1.4449 0.2612 0.3184 0 0.4408 0.049 0.6857 0.2612 0.2776 0.2449 0.4735 0.7429 0.2531 0.6531 -0.1796 -0.0653 -0.2776 0.2367 -0.2204 0.6857 0.0245 0.2286 0.0245 0.4245 -0.0082 0.4245 -0.0898 0 -0.1796 0.4163 -0.1633 0.7265 0.0163 0.1469 -0.0163 0.302 -0.0653 0.3347 -0.049 0.0245 -0.1633 0.2449 -0.2449 0.4735 -0.0898 0.2367 -0.1306 0.4082 -0.0898 0.3837 0.0408 -0.0245 0.098 0 0.1306 0.049 0.0327 0.0571 0.1306 -0.0735 0.2286 -0.3184 0.2286 -0.5388 0.3184 -0.6204 0.1633 -0.1633 -0.5959 1.8449 -0.7755 2.2367 -1.0204 2.3102 -0.0816 0.0245 -0.1633 0.098 -0.1878 0.1633 -0.0245 0.0653 -0.0816 0.1224 -0.1306 0.1224 -0.1306 0 -0.098 -0.2286 0.049 -0.3102 0.1959 -0.1061 0.2204 -0.5633 0.0327 -0.6122 -0.0735 -0.0163 -0.1796 0.0327 -0.2367 0.1143 -0.0571 0.1061 -0.0653 0.1551 0 0.1551 0.0408 0 0.0571 0.0408 0.0327 0.0816 -0.0327 0.049 -0.0898 0.0653 -0.1306 0.0408 -0.0408 -0.0327 -0.0735 -0.0163 -0.0735 0.0327 0 0.0408 -0.0653 0.1388 -0.1388 0.2204 -0.1061 0.1061 -0.1143 0.1551 -0.0408 0.1796 0.049 0.0163 0.098 0.1061 0.098 0.2041 0 0.1633 0 0.1633 -0.1224 0.0082 -0.1143 -0.1469 -0.1143 -0.1388 -0.1224 0.1143 0 0.2367 0.0245 0.2612 0.2449 0.2612 0.1878 0 0.3347 -0.0816 0.5714 -0.3429 0.1796 -0.1959 0.3265 -0.3102 0.3265 -0.2694 0 0.049 -0.0816 0.3592 -0.1714 0.6939 -0.1143 0.4 -0.1878 0.9633 -0.2122 1.6082 -0.0408 0.9306 -0.0327 1.0041 0.1061 1.0531 0.1959 0.0571 0.1959 0.0571 1.0612 0.6367 0.6857 0.4571 1.6082 0.898 1.698 0.8082 0.0163 -0.0245 0.1061 0 0.1878 0.049 0.2204 0.1224 0.9388 0.1061 1.2735 -0.0327z m-3.9429 -5.7469 c0 -0.0816 0.0898 -0.2367 0.1959 -0.351 0.1143 -0.1061 0.2286 -0.2939 0.2531 -0.4163 0.049 -0.1878 0.0327 -0.2204 -0.1143 -0.2204 -0.1878 0 -0.3755 0.2776 -0.2857 0.4245 0.0327 0.049 0.0245 0.0653 -0.0327 0.0327 -0.049 -0.0245 -0.1633 0.0816 -0.2694 0.2449 -0.1469 0.2449 -0.1551 0.3102 -0.0653 0.3673 0.1878 0.1143 0.3184 0.0816 0.3184 -0.0816z"/>
  <path d="M18.2857 28.702 c-0.1143 -0.049 -0.2286 -0.1224 -0.2531 -0.1633 -0.0327 -0.0327 -0.0898 -0.049 -0.1388 -0.0163 -0.049 0.0245 -0.1061 0.0163 -0.1388 -0.0327 -0.0245 -0.049 0.0327 -0.0816 0.1388 -0.0898 0.1061 0 0.1388 -0.0245 0.0816 -0.049 -0.049 -0.0163 -0.0735 -0.0735 -0.049 -0.1143 0.0653 -0.1061 0.2776 0.0735 0.2776 0.2286 0 0.0653 0.0327 0.098 0.0653 0.0735 0.0898 -0.0571 0.2857 0.0816 0.2531 0.1796 -0.0245 0.049 -0.1061 0.0408 -0.2367 -0.0163z"/>
  <path d="M18.6204 28.4735 c-0.0082 -0.0816 -0.1061 -0.1551 -0.2367 -0.1878 -0.3102 -0.0653 -0.5959 -0.449 -0.5306 -0.702 l0.049 -0.1959 -0.1714 0.2041 -0.1714 0.2041 -0.0816 -0.2041 c-0.0408 -0.1143 -0.0816 -0.1551 -0.0816 -0.0898 -0.0082 0.0653 0.0571 0.1878 0.1306 0.2694 0.2286 0.2531 0.2041 0.4 -0.0408 0.351 -0.2122 -0.0408 -0.2122 -0.0408 -0.0327 0.049 0.098 0.0571 0.1796 0.1469 0.1796 0.2041 0 0.0816 -0.0571 0.0653 -0.1796 -0.0408 -0.1061 -0.0898 -0.2776 -0.2286 -0.3837 -0.3102 -0.1633 -0.1306 -0.1796 -0.1878 -0.098 -0.3347 0.1143 -0.2122 0.1143 -0.3429 0 -0.3429 -0.049 0 -0.0735 0.0571 -0.0408 0.1224 0.0571 0.1551 -0.0082 0.1551 -0.1551 0.0082 -0.1306 -0.1224 -0.1224 -0.2531 0.0327 -0.5306 0.0816 -0.1551 0.1224 -0.1714 0.1796 -0.0816 0.0408 0.0653 0.0735 0.0735 0.0735 0.0245 0 -0.1469 -0.098 -0.2041 -0.2041 -0.1143 -0.1306 0.1143 -0.1878 -0.1143 -0.1714 -0.6531 0.0082 -0.2449 -0.0327 -0.4571 -0.0898 -0.498 -0.0653 -0.0653 -0.0735 -0.1469 -0.0163 -0.2939 0.049 -0.1388 0.049 -0.2449 0 -0.2939 -0.1224 -0.1224 0.0245 -0.7184 0.6367 -2.4653 0.1878 -0.5633 0.4082 -1.4204 0.4653 -1.8367 0.0653 -0.5388 0.0571 -1.3633 -0.0245 -1.4939 -0.0327 -0.049 -0.0653 -0.2041 -0.0816 -0.3347 -0.0245 -0.2531 -0.2286 -0.5388 -0.3755 -0.5388 -0.1306 0 -1.1918 -0.7429 -1.3224 -0.9224 -0.0898 -0.1224 -0.0898 -0.1959 -0.0163 -0.3102 0.0571 -0.0898 0.1469 -0.1551 0.2041 -0.1551 0.0653 0 0.0816 -0.0408 0.049 -0.098 -0.0408 -0.0571 -0.0163 -0.0735 0.0653 -0.0408 0.0735 0.0245 0.302 -0.0082 0.5224 -0.0735 0.2776 -0.0816 0.4163 -0.0898 0.4898 -0.0245 0.0816 0.0653 0.1551 0.0571 0.2939 -0.0408 0.1959 -0.1388 0.5143 -0.1796 0.4408 -0.0571 -0.0245 0.0327 0.0408 0.049 0.1469 0.0327 0.1633 -0.0327 0.1959 0 0.2367 0.2531 0.0653 0.3837 -0.0245 1.298 -0.1224 1.3633 -0.049 0.0327 -0.0408 0.0653 0.0245 0.0898 0.0653 0.0245 0.0816 0.0816 0.0327 0.1959 -0.0327 0.0816 -0.0571 0.1878 -0.049 0.2204 0.0082 0.0327 -0.0408 0.1224 -0.1061 0.1796 -0.0898 0.0898 -0.1224 0.098 -0.1551 0.0163 -0.0163 -0.049 -0.049 0 -0.0735 0.1143 -0.0327 0.1796 -0.0163 0.2041 0.1469 0.1714 0.1633 -0.0327 0.1878 0.0082 0.2449 0.4408 0.0816 0.6367 0.0816 1.6735 0.0163 3.2571 -0.0245 0.7184 -0.0245 1.5837 0.0082 1.9184 0.0735 0.702 0.049 0.8653 -0.1224 0.7265 -0.0653 -0.0571 -0.0898 -0.1714 -0.0653 -0.2776 0.0245 -0.1061 0.0082 -0.2612 -0.0408 -0.3429 -0.0735 -0.1306 -0.0816 -0.1224 -0.0898 0.0571 0 0.1633 -0.0163 0.1796 -0.0898 0.0816 -0.0653 -0.098 -0.0816 -0.0735 -0.049 0.098 0.0245 0.1633 0 0.2041 -0.098 0.1796 -0.0735 -0.0163 -0.0408 0.0082 0.0735 0.0653 0.5469 0.2857 0.6694 0.4082 0.6204 0.6694 -0.0327 0.1714 -0.0245 0.2122 0.0245 0.1388 0.0653 -0.098 0.0898 -0.0653 0.1388 0.1224 0.0327 0.1306 0.1469 0.3429 0.2531 0.4735 0.1469 0.1714 0.1714 0.2531 0.098 0.302 -0.0653 0.0408 -0.0163 0.0735 0.1388 0.0898 0.1306 0.0163 0.2367 0.0653 0.2367 0.1143 0 0.1061 0.2449 0.3592 0.3592 0.3592 0.1306 0 0.2694 0.302 0.1714 0.3673 -0.0408 0.0245 -0.0816 0.1388 -0.0816 0.2531 0 0.3102 -0.302 0.2612 -0.4 -0.0653 l-0.0735 -0.2694 -0.0082 0.2367 c-0.0082 0.2204 -0.0245 0.2286 -0.2857 0.1878 -0.1796 -0.0245 -0.302 -0.0082 -0.3265 0.049 -0.0163 0.0571 -0.0408 0.0327 -0.0408 -0.0408z m0.2449 -0.2857 c0 -0.0408 0.0163 -0.1469 0.0408 -0.2449 0.049 -0.2612 -0.0163 -0.2286 -0.1224 0.0571 -0.049 0.1469 -0.049 0.2449 0 0.2449 0.0408 0 0.0735 -0.0245 0.0816 -0.0571z m-1.5429 -0.5551 c0 -0.2041 -0.0082 -0.3918 -0.0163 -0.4245 -0.0163 -0.0408 -0.0163 -0.098 -0.0082 -0.1306 0.0082 -0.0408 -0.0245 -0.049 -0.0735 -0.0163 -0.049 0.0245 -0.0653 0.0898 -0.0408 0.1306 0.0245 0.0408 0.0163 0.2041 -0.0327 0.3673 -0.0571 0.2122 -0.0571 0.3265 0.0163 0.4 0.1388 0.1469 0.1633 0.098 0.1551 -0.3265z m1.4122 -0.1388 c0 -0.2612 -0.0327 -0.3429 -0.1551 -0.3592 -0.0816 -0.0082 -0.1796 -0.0653 -0.2122 -0.1143 -0.0408 -0.0653 -0.0816 -0.0735 -0.1143 -0.0163 -0.0245 0.049 0.0245 0.1061 0.1143 0.1388 0.1143 0.0327 0.1796 0.1469 0.2122 0.3755 0.0735 0.4163 0.1633 0.4082 0.1551 -0.0245z m-0.6449 -1.3388 c-0.0245 -0.0735 -0.049 -0.1796 -0.049 -0.2449 0 -0.0735 -0.0327 -0.1061 -0.0735 -0.0735 -0.0408 0.0245 -0.098 -0.0245 -0.1143 -0.098 -0.0245 -0.0898 -0.0408 -0.0571 -0.049 0.0816 -0.0082 0.1388 0.0245 0.2122 0.0735 0.1796 0.0735 -0.049 0.1143 0.0653 0.0898 0.2286 0 0.0327 0.0327 0.0571 0.0816 0.0571 0.049 0 0.0653 -0.0571 0.0408 -0.1306z m-0.6612 -0.1959 c0.0571 0 0.1224 -0.0735 0.1469 -0.1633 0.049 -0.1959 0.0245 -0.2041 -0.1878 -0.0245 -0.0898 0.0816 -0.1633 0.1959 -0.1551 0.2694 0 0.0816 0.0163 0.0898 0.049 0.0245 0.0163 -0.0571 0.0898 -0.1061 0.1469 -0.1061z"/>
  <path d="M16.2939 25.6327 c0.0898 -0.4571 0.2041 -0.6694 0.1469 -0.2612 -0.0327 0.2122 -0.0082 0.3918 0.049 0.4653 0.0735 0.0898 0.0653 0.1143 -0.0735 0.098 -0.1551 -0.0082 -0.1633 -0.049 -0.1224 -0.302z"/>
  <path d="M15.3633 17.9102 c-0.2776 -0.0653 -0.6204 -0.1714 -0.751 -0.2367 -0.1306 -0.0653 -0.2857 -0.1224 -0.351 -0.1224 -0.0571 0 -0.3429 -0.1143 -0.6367 -0.2531 -0.2857 -0.1388 -0.5959 -0.2857 -0.6857 -0.3265 -0.1796 -0.0816 -0.2531 -0.1224 -0.9796 -0.5959 -0.4163 -0.2776 -1.9429 -1.6816 -1.7143 -1.5837 0.2612 0.1143 1.2 0.6041 1.551 0.8082 0.5959 0.351 1.6816 0.8653 1.9592 0.9388 0.1388 0.0327 0.3184 0.1061 0.4163 0.1633 0.0898 0.0653 0.3755 0.1878 0.6286 0.2694 0.3592 0.1306 0.4653 0.1388 0.4653 0.0571 0 -0.0653 -0.0653 -0.1306 -0.1388 -0.1633 -0.0816 -0.0245 -0.2694 -0.1224 -0.4245 -0.2122 -0.2694 -0.1714 -0.6857 -0.3429 -1.2082 -0.498 -0.1469 -0.0408 -0.5224 -0.2286 -0.8408 -0.4 -0.3102 -0.1796 -0.5878 -0.3265 -0.6122 -0.3265 -0.0327 0 -0.1878 -0.1143 -0.3592 -0.2449 -0.351 -0.2857 -1.1184 -0.6041 -1.2571 -0.5224 -0.0571 0.0327 -0.0735 0.0327 -0.0408 -0.0082 0.0408 -0.0408 -0.0816 -0.1306 -0.2531 -0.2122 -0.2122 -0.0898 -0.3592 -0.2367 -0.4408 -0.4163 -0.2122 -0.4653 -0.2449 -0.6531 -0.1306 -0.7265 0.0898 -0.0571 0.098 -0.098 0.0163 -0.2367 -0.1796 -0.2776 -0.1143 -0.3347 0.1633 -0.1469 0.1388 0.1061 0.2776 0.1959 0.302 0.2122 0.0163 0.0163 -0.0082 0.0571 -0.0653 0.0898 -0.0816 0.049 -0.0816 0.0898 0.0245 0.1714 0.1061 0.0898 0.1143 0.0816 0.0653 -0.049 -0.0408 -0.1143 0.0408 -0.0735 0.3102 0.1306 0.1959 0.1633 0.5061 0.3918 0.6857 0.5061 0.1796 0.1224 0.3918 0.3347 0.4735 0.4653 0.0816 0.1388 0.1878 0.2286 0.2531 0.2041 0.0571 -0.0245 0.1633 0.0163 0.2367 0.0816 0.0735 0.0735 0.1551 0.1306 0.1959 0.1306 0.0327 0 0.3184 0.1306 0.6204 0.2857 0.3102 0.1551 0.5959 0.2857 0.6449 0.2857 0.049 0 0.1551 0.049 0.2204 0.1061 0.0735 0.0653 0.2612 0.1633 0.4163 0.2204 0.3592 0.1388 1.6571 0.898 1.7306 1.0041 0.0571 0.0898 -0.098 0.3837 -0.2041 0.3837 -0.0327 0 -0.0408 -0.0408 -0.0082 -0.098 0.0327 -0.0571 0.0245 -0.0653 -0.0327 -0.0327 -0.0571 0.0327 -0.098 0.1143 -0.098 0.1796 0 0.0653 -0.049 0.1143 -0.098 0.1143 -0.0571 0.0082 0.0735 0.1714 0.302 0.3673 0.4327 0.3918 0.4245 0.4 -0.351 0.2367z"/>
  <path d="M18.6122 17.5755 c0 -0.2204 -0.0245 -0.5796 -0.049 -0.8082 -0.049 -0.3837 -0.0327 -0.4327 0.1796 -0.6531 0.1306 -0.1306 0.4408 -0.3918 0.6857 -0.5796 0.2449 -0.1878 0.6449 -0.5061 0.8816 -0.7102 0.4082 -0.351 0.4245 -0.3673 0.2531 -0.4653 -0.098 -0.049 -0.1551 -0.0571 -0.1306 -0.0163 0.0163 0.0327 0.0082 0.1469 -0.0327 0.2449 -0.049 0.1306 -0.1061 0.1714 -0.2041 0.1306 -0.1061 -0.0408 -0.1224 -0.0245 -0.0735 0.0571 0.0408 0.0735 0.0327 0.0898 -0.0245 0.049 -0.0571 -0.0327 -0.2122 0.0571 -0.3673 0.2122 -0.4163 0.4163 -1.1755 0.9633 -1.2408 0.898 -0.0408 -0.0327 -0.049 -0.0163 -0.0163 0.0245 0.0245 0.049 0.0163 0.1388 -0.0327 0.2041 -0.0571 0.098 -0.0735 0.098 -0.0735 0.0082 0 -0.0898 -0.0245 -0.0898 -0.1224 -0.0082 -0.0653 0.0571 -0.1061 0.1306 -0.0816 0.1633 0.0245 0.0408 -0.0327 0.049 -0.1143 0.0245 -0.2531 -0.0653 -0.049 -0.2939 0.8735 -0.9878 0.9551 -0.7102 1.2816 -0.9878 1.2816 -1.0857 0 -0.0653 0.0408 -0.1143 0.0816 -0.1143 0.049 0 0.2776 -0.2041 0.5143 -0.449 0.2286 -0.2449 0.5143 -0.5469 0.6367 -0.6612 0.1388 -0.1388 0.1959 -0.2612 0.1551 -0.3265 -0.0408 -0.0653 -0.0408 -0.0898 0 -0.0571 0.0327 0.0327 0.2367 -0.1714 0.449 -0.4571 0.5224 -0.702 1.7469 -1.8776 1.7796 -1.7143 0.0163 0.0653 -0.0571 0.2286 -0.1633 0.3592 -1.0531 1.298 -1.4857 1.8122 -1.6898 2.0082 -0.1306 0.1224 -0.2612 0.3102 -0.2939 0.4163 -0.0245 0.1061 -0.0898 0.1878 -0.1551 0.1878 -0.0571 0 -0.1551 0.0898 -0.2122 0.2041 -0.0571 0.1061 -0.1306 0.1796 -0.1633 0.1633 -0.0571 -0.0327 -0.4898 0.4 -0.4898 0.4898 0 0.0816 0.1633 0.0327 0.3184 -0.098 0.0898 -0.0735 0.1388 -0.1714 0.1143 -0.2122 -0.0245 -0.049 -0.0163 -0.0571 0.0327 -0.0327 0.1306 0.0816 1.0857 -0.9224 1.698 -1.7796 0.1551 -0.2286 0.3347 -0.4816 0.4082 -0.5714 0.0735 -0.0898 0.2041 -0.2612 0.2939 -0.3837 0.0898 -0.1306 0.1959 -0.2286 0.2286 -0.2286 0.0571 0 -0.0571 1.0122 -0.2286 1.9102 -0.1306 0.702 -0.9224 2.2449 -1.4286 2.7918 -0.6041 0.6531 -1.3061 1.1837 -2.0735 1.5673 -0.3592 0.1796 -0.7673 0.4 -0.9061 0.498 -0.3918 0.2776 -0.498 0.2286 -0.498 -0.2122z"/>
  <path d="M16.0408 16.6531 c0.0245 -0.0408 -0.0571 -0.1224 -0.1796 -0.1796 -0.1224 -0.0571 -0.3755 -0.2122 -0.5551 -0.351 -0.2776 -0.2204 -1.4286 -0.8082 -2.6939 -1.3959 -0.1796 -0.0816 -0.5306 -0.3184 -0.7755 -0.5224 -0.5633 -0.4653 -0.9469 -0.7347 -1.0531 -0.7347 -0.049 0 -0.1143 -0.049 -0.1469 -0.1061 -0.0327 -0.049 -0.1959 -0.1959 -0.351 -0.3102 -0.702 -0.5306 -1.0939 -1.0122 -1.1347 -1.4204 -0.0163 -0.1796 -0.0245 -0.8898 -0.0245 -1.5837 0.0082 -1.151 0.0163 -1.2816 0.1796 -1.4939 0.1061 -0.1388 0.1551 -0.2939 0.1224 -0.3918 -0.0245 -0.0816 -0.0082 -0.1714 0.0408 -0.2041 0.049 -0.0327 0.0816 0.0327 0.0816 0.1469 0 0.2939 0.5633 1.0286 1.0449 1.3633 0.4408 0.302 1.0041 0.5061 1.4449 0.5388 0.5306 0.0408 2 -0.5878 1.8694 -0.7918 -0.0245 -0.0408 0.0082 -0.049 0.0735 -0.0327 0.1388 0.0571 0.849 -0.5633 0.9143 -0.8 0.0327 -0.098 0.1224 -0.3265 0.1959 -0.5061 0.3184 -0.702 0.2531 -1.6082 -0.1551 -2.4 -0.1878 -0.3592 -0.8653 -1.0694 -1.0286 -1.0694 -0.0653 0 -0.1796 -0.0735 -0.2531 -0.1633 -0.0816 -0.0898 -0.2694 -0.2041 -0.4327 -0.2531 -0.1551 -0.0571 -0.3592 -0.1469 -0.4408 -0.2041 -0.1388 -0.098 -0.1143 -0.1224 0.3184 -0.3102 0.2612 -0.1224 0.5143 -0.2122 0.5633 -0.2122 0.0571 0 0.1306 -0.0327 0.1714 -0.0735 0.049 -0.049 0.5633 -0.1959 1.1429 -0.3429 1.0041 -0.2531 1.1429 -0.2694 2.5714 -0.2694 1.2898 0 1.6327 0.0245 2.3265 0.1878 0.449 0.098 0.9633 0.2122 1.1429 0.2449 0.1796 0.0408 0.4408 0.1306 0.5714 0.2122 0.5714 0.3347 1.4531 1.9102 0.9633 1.7224 -0.2531 -0.098 -1.3061 -0.1551 -1.8449 -0.098 -0.5143 0.0571 -0.5551 0.0816 -1.0857 0.5796 -0.3102 0.2939 -0.5959 0.498 -0.6612 0.4735 -0.0735 -0.0245 -0.1796 0.1143 -0.3184 0.4245 -0.1796 0.4163 -0.2041 0.6041 -0.2204 1.4612 -0.0082 0.5469 0.0082 1.151 0.0408 1.3469 0.0816 0.4571 0.4735 1.0531 0.8898 1.3306 0.2939 0.1959 1.0694 0.4735 1.6653 0.5878 0.4571 0.0898 1.3714 0.0571 1.4776 -0.0571 0.0327 -0.0327 0.1143 -0.0571 0.1878 -0.0571 0.0735 0 -0.0163 0.1469 -0.2531 0.3918 -0.3347 0.351 -1.0449 1.2653 -1.0449 1.3551 0 0.0408 -0.6939 0.8082 -1.1102 1.2245 -0.4245 0.4245 -0.6694 0.6286 -1.0449 0.8816 -0.1633 0.1143 -0.4735 0.3673 -0.6857 0.5633 -0.9469 0.8816 -1.2163 1.0531 -1.8612 1.2163 -0.7347 0.1878 -0.7102 0.1878 -0.6449 0.0816z m0.351 -2.6612 c0.6449 -0.0571 0.6776 -0.2122 0.0408 -0.1878 -0.8571 0.0408 -1.0694 0.0082 -1.1265 -0.1633 -0.1224 -0.4 -0.6857 -0.2286 -0.5878 0.1714 0.049 0.1796 0.098 0.1959 0.6041 0.2122 0.302 0.0082 0.7837 -0.0082 1.0694 -0.0327z m1.8939 -6.049 c-0.0082 -0.2694 -0.6367 -0.5796 -1.4204 -0.6939 -0.6041 -0.0816 -0.7265 -0.0816 -1.0531 0.049 -0.4245 0.1633 -0.5878 0.3184 -0.5143 0.5061 0.0408 0.1143 0.0816 0.1061 0.3265 -0.0408 0.5306 -0.3265 1.4857 -0.2939 2.2286 0.0735 0.3429 0.1714 0.4327 0.1959 0.4327 0.1061z"/>
  <path d="M9.2816 12.8653 c-0.0327 -0.1224 -0.049 -0.2531 -0.0163 -0.2776 0.0816 -0.0816 0.1306 0.049 0.1061 0.2857 l-0.0245 0.2286 -0.0653 -0.2367z"/>
  <path d="M20.8082 10.702 c-0.4816 -0.098 -1.2408 -0.4245 -1.4857 -0.6531 -0.1224 -0.1143 -0.3184 -0.4082 -0.4408 -0.6612 -0.1959 -0.4163 -0.2122 -0.5306 -0.2122 -1.5184 -0.0082 -1.1918 0.0327 -1.3143 0.5714 -1.7796 0.1469 -0.1306 0.2694 -0.2857 0.2694 -0.3429 0 -0.0571 0.049 -0.0898 0.1143 -0.0653 0.0653 0.0245 0.1551 -0.0245 0.1959 -0.1061 0.049 -0.0816 0.2776 -0.2204 0.5061 -0.302 0.351 -0.1224 0.5796 -0.1469 1.298 -0.1143 0.5306 0.0245 0.9469 0.0898 1.0531 0.1551 0.2367 0.1469 0.6531 0.8816 0.8 1.4122 0.0653 0.2286 0.1551 0.9796 0.1959 1.6653 l0.0816 1.249 -0.2122 0.2776 c-0.1143 0.1469 -0.2612 0.2939 -0.3265 0.3184 -0.0571 0.0245 -0.1143 0.0816 -0.1143 0.1388 0 0.049 0.0571 0.0653 0.1306 0.0408 0.0735 -0.0245 0.098 -0.0163 0.0735 0.0408 -0.0327 0.049 -0.1143 0.0653 -0.1796 0.0408 -0.0653 -0.0245 -0.3347 0.0245 -0.5959 0.1143 -0.4898 0.1633 -1.151 0.1959 -1.7224 0.0898z m-0.6531 -2.449 c0.0898 -0.1633 -0.0163 -0.702 -0.1633 -0.7918 -0.1469 -0.0816 -0.3837 0.2122 -0.4245 0.5224 -0.0163 0.1633 -0.0163 0.3265 0 0.3673 0.0735 0.1224 0.5061 0.0571 0.5878 -0.098z m1.8857 -1.7224 c0 -0.0408 -0.1388 -0.1388 -0.302 -0.2204 -0.1714 -0.0735 -0.3347 -0.1551 -0.3673 -0.1714 -0.0408 -0.0163 -0.0653 0.049 -0.0653 0.1469 0 0.1061 0.0408 0.1633 0.098 0.1469 0.0571 -0.0245 0.1959 0.0082 0.3102 0.0735 0.2449 0.1224 0.3265 0.1306 0.3265 0.0245z"/>
  <path d="M11.2735 9.4694 c-0.6939 -0.3184 -1.1265 -0.7102 -1.3061 -1.1673 -0.2857 -0.7837 -0.2857 -1.0857 0.0163 -1.7551 0.4 -0.8898 1.6898 -2.4 2.1551 -2.5143 0.4163 -0.1061 1.5184 0.3755 2.1224 0.9306 0.5388 0.498 0.8327 1.4531 0.6857 2.2367 -0.0898 0.5224 -0.4163 1.2163 -0.6857 1.4857 -0.2776 0.2694 -0.9551 0.6776 -1.3633 0.8163 -0.5061 0.1796 -1.1837 0.1633 -1.6245 -0.0327z m2.2612 -1.3061 c0.1224 -0.2041 -0.0408 -0.7592 -0.2367 -0.8 -0.1959 -0.0327 -0.4408 0.7347 -0.302 0.9551 0.0735 0.1224 0.1306 0.1388 0.2694 0.0735 0.098 -0.0408 0.2122 -0.1469 0.2694 -0.2286z m-1.2898 -2.1388 c0 -0.1469 -0.1959 -0.1469 -0.3592 0.0082 -0.098 0.098 -0.2286 0.1714 -0.2776 0.1714 -0.1061 0 -0.1306 0.1061 -0.049 0.1878 0.0571 0.0571 0.6857 -0.2776 0.6857 -0.3673z"/>
  <path d="M23.9837 8.0327 c-0.0327 -0.5469 -0.1143 -1.0041 -0.2531 -1.4204 -0.1143 -0.3347 -0.1959 -0.6204 -0.1796 -0.6367 0.0082 -0.0163 0.1633 0.1714 0.3347 0.4082 l0.3184 0.4245 0 0.8653 c0 1.1918 -0.1633 1.4531 -0.2204 0.3592z"/>
  <path d="M9.8776 5.9837 c0 -0.0408 0.1061 -0.2694 0.2286 -0.5143 0.1469 -0.2939 0.2857 -0.4571 0.3918 -0.4735 0.098 -0.0163 0.2204 -0.1306 0.2857 -0.2776 0.0653 -0.1388 0.2531 -0.3429 0.4245 -0.449 l0.3102 -0.1959 -0.1388 0.2122 c-0.0735 0.1143 -0.1551 0.2041 -0.1878 0.2041 -0.0816 0 -0.9061 1.0367 -0.9061 1.1429 0 0.0408 -0.0327 0.0816 -0.0735 0.0816 -0.0408 0 -0.1061 0.0735 -0.1306 0.1633 -0.049 0.1551 -0.2041 0.2367 -0.2041 0.1061z"/>
  <path d="M16.4571 22.8 c-0.0327 -0.0735 -0.0245 -0.1633 0.0163 -0.2041 0.049 -0.049 0.0816 0.0082 0.0816 0.1306 0 0.2449 -0.0245 0.2612 -0.098 0.0735z"/>
</g>
 <g id="layer103" fill="#508a95" stroke="none">
  <path d="M14.0816 31.8694 c-3.7388 -0.5061 -6.8163 -2 -9.3796 -4.5714 -5.6735 -5.6735 -6.2776 -14.5224 -1.4204 -20.9878 3.2653 -4.3592 8.9224 -6.8163 14.3347 -6.2204 3.7551 0.4082 7.0776 1.9918 9.7143 4.6449 3.4449 3.4531 5.1592 8.4 4.5469 13.1184 -0.8082 6.1796 -4.8898 11.2408 -10.6694 13.2408 -2.302 0.7918 -4.9061 1.0776 -7.1265 0.7755z m6.1224 -2.6612 c0.2939 -0.1551 0.6041 -0.4898 0.6531 -0.7265 0.0653 -0.2939 -0.0163 -0.4408 -0.1633 -0.3184 -0.0816 0.0653 -0.1551 0.0245 -0.2939 -0.1796 -0.1061 -0.1469 -0.4408 -0.5143 -0.751 -0.8163 -0.9388 -0.9306 -1.0776 -1.551 -1.0041 -4.3918 0.0245 -1.0122 0.0163 -2.3184 -0.0245 -2.9061 -0.0898 -1.4122 -0.0735 -1.502 0.3184 -1.7224 l0.3184 -0.1714 0.049 0.4327 c0.0327 0.2449 0.0082 1.0776 -0.049 1.8531 -0.1143 1.4449 -0.1469 3.7551 -0.0653 5.102 0.0245 0.4163 0.0082 0.7918 -0.0327 0.8327 -0.098 0.098 0.0082 0.4163 0.1469 0.4163 0.1878 0 1.298 0.702 2.098 1.3224 0.2694 0.2122 0.8816 0.4082 0.8816 0.2857 0 -0.0245 -0.1551 -0.1224 -0.3429 -0.2041 -0.1959 -0.0816 -0.5878 -0.3755 -0.8816 -0.6531 -0.2939 -0.2776 -0.5551 -0.5061 -0.5878 -0.5061 -0.1469 0 -0.751 -0.6041 -0.7673 -0.7592 -0.0082 -0.098 -0.0571 -0.5796 -0.1143 -1.0776 -0.0898 -0.8735 -0.0571 -6 0.049 -6.9143 0.049 -0.3837 0.049 -0.3837 0.6122 -0.6449 0.3102 -0.1469 0.5633 -0.2939 0.5633 -0.3184 0 -0.0327 0.0898 -0.098 0.1959 -0.1469 0.1143 -0.049 0.5796 -0.4571 1.0531 -0.9061 0.8898 -0.8571 1.1755 -1.2898 1.5755 -2.3673 0.2122 -0.5714 0.5878 -2.8735 0.6449 -3.9265 0.0163 -0.3347 0.0735 -0.7184 0.1306 -0.8571 0.0571 -0.1388 0.098 -0.6449 0.1061 -1.1837 0.0082 -0.8163 -0.0163 -0.9796 -0.1714 -1.2653 -0.1714 -0.3184 -1.0449 -1.2653 -1.1673 -1.2653 -0.0327 0 -0.098 -0.1551 -0.1469 -0.351 -0.0816 -0.3102 -0.5061 -1.0776 -0.8327 -1.502 -0.2776 -0.351 -0.702 -0.5878 -1.2245 -0.6776 -0.2939 -0.049 -0.7673 -0.1469 -1.0612 -0.2122 -2.2204 -0.5388 -5.0857 -0.1959 -7.2 0.8653 -0.3429 0.1714 -0.7592 0.3347 -0.9388 0.3673 -0.1714 0.0245 -0.4245 0.1143 -0.5714 0.1878 -0.3429 0.1878 -1.0612 0.8735 -1.2082 1.1673 -0.0735 0.1306 -0.1551 0.2367 -0.1959 0.2367 -0.1224 0 -0.2531 0.4327 -0.3265 1.1429 -0.0408 0.4082 -0.1878 1.0204 -0.351 1.4694 -0.3102 0.8653 -0.3429 1.2245 -0.3265 2.9796 0.0327 2.4571 0.0408 2.5714 0.2939 3.0531 0.3673 0.7102 2.1469 2.4163 2.9633 2.849 l0.1796 0.098 -0.0408 2.9224 c-0.0245 1.6 -0.0571 3.0286 -0.0735 3.1592 -0.0163 0.1388 -0.0735 0.9224 -0.1306 1.7551 l-0.098 1.5102 -0.8327 0.8163 c-0.8245 0.8 -1.1918 1.2816 -1.0776 1.4041 0.0327 0.0327 0.4163 -0.302 0.849 -0.7429 0.4327 -0.4327 0.9469 -0.8898 1.1429 -1.0041 0.3184 -0.1878 0.351 -0.2286 0.3592 -0.5388 0.0327 -1.502 0.0735 -2.2694 0.1551 -3.0776 0.049 -0.5143 0.0898 -2 0.0898 -3.3061 -0.0082 -1.298 0.0245 -2.4163 0.0653 -2.4735 0.049 -0.0816 0.2449 -0.0245 0.898 0.2612 0.449 0.2041 0.8653 0.3755 0.9143 0.3755 0.049 0 0.2041 0.049 0.3429 0.1143 0.3918 0.1796 1.2898 0.3755 1.6898 0.3755 0.302 0 0.3918 0.0408 0.6776 0.3347 l0.3265 0.3347 -0.2122 0.1796 c-0.1796 0.1551 -0.2041 0.2286 -0.1714 0.4735 0.0327 0.1633 -0.0082 0.4816 -0.0816 0.7429 -0.0735 0.2449 -0.1306 0.5306 -0.1306 0.6367 0 0.3184 -0.5551 1.4367 -1.0776 2.1959 -0.7755 1.1102 -0.9388 1.4939 -0.7102 1.6408 0.2204 0.1388 0.4082 0.0735 0.7592 -0.2531 l0.3592 -0.3347 -0.1959 0.7592 c-0.1469 0.5796 -0.1959 0.9633 -0.1959 1.6735 0 0.8571 0.0082 0.9224 0.1551 0.9224 0.0898 0 0.1878 0.0408 0.2122 0.0816 0.0653 0.1061 0.8898 0.6531 1.1837 0.7837 0.0653 0.0327 0.1959 0.1224 0.2857 0.1959 0.1633 0.1388 0.6857 0.3347 1.3061 0.4816 0.3592 0.0898 0.9633 0.0408 1.2245 -0.0898z"/>
  <path d="M19.5347 28.3592 c-0.0245 -0.0653 -0.0082 -0.1633 0.049 -0.2204 0.0653 -0.0653 0.0898 -0.0327 0.0898 0.1306 0 0.2449 -0.0571 0.2857 -0.1388 0.0898z"/>
  <path d="M18.2367 27.902 c-0.0653 -0.1306 -0.1061 -0.2939 -0.0816 -0.3592 0.0245 -0.0653 0.0082 -0.1143 -0.0408 -0.1143 -0.1143 0 -0.0082 -0.498 0.1388 -0.6531 0.098 -0.098 0.1143 -0.098 0.1143 0.0245 0 0.0735 -0.0327 0.1388 -0.0816 0.1388 -0.0408 0 -0.0816 0.0571 -0.0816 0.1306 0 0.0653 0.0327 0.1061 0.0735 0.0816 0.0408 -0.0245 0.098 0.0082 0.1224 0.0816 0.0327 0.0816 0.0163 0.1061 -0.049 0.0653 -0.0653 -0.0408 -0.0735 0.0082 -0.0327 0.1796 0.0327 0.1306 0.098 0.2531 0.1388 0.2612 0.0408 0.0163 0.0735 0.0653 0.0735 0.1061 0 0.049 -0.0327 0.0571 -0.0816 0.0327 -0.0408 -0.0245 -0.0816 0 -0.0816 0.0653 0 0.0816 0.0571 0.1061 0.1633 0.0816 0.0898 -0.0245 0.1633 -0.0082 0.1633 0.0327 0 0.0408 -0.0735 0.0735 -0.1633 0.0816 -0.1061 0.0082 -0.2122 -0.0735 -0.2939 -0.2367z"/>
  <path d="M19.0776 28.049 c-0.0816 -0.0653 -0.1306 -0.1633 -0.1224 -0.2204 0.0163 -0.0653 -0.0245 -0.1061 -0.0735 -0.0898 -0.0571 0.0082 -0.1061 -0.0245 -0.1061 -0.0735 0 -0.1143 0.2449 -0.351 0.3918 -0.3673 0.0898 -0.0163 0.098 0 0.0245 0.0735 -0.049 0.049 -0.0898 0.2041 -0.0898 0.3429 0 0.1878 0.0245 0.2122 0.0816 0.1224 0.0653 -0.098 0.0816 -0.0735 0.0816 0.1061 0 0.2531 0.0082 0.2531 -0.1878 0.1061z"/>
  <path d="M17.5184 27.3633 c0.1633 -0.1061 0.2204 -0.4245 0.098 -0.5633 -0.0571 -0.0735 -0.0653 -0.1143 -0.0163 -0.0816 0.0571 0.0327 0.1143 -0.0245 0.1306 -0.1388 0.0408 -0.1959 0.0327 -0.1959 -0.1388 -0.0653 -0.1388 0.1061 -0.1714 0.2041 -0.1551 0.4408 0.0082 0.1796 -0.0163 0.2939 -0.0571 0.2694 -0.0408 -0.0327 -0.0735 -0.1224 -0.0735 -0.2122 0 -0.1143 -0.0327 -0.1469 -0.098 -0.1061 -0.0735 0.0408 -0.0735 0.0163 0.0082 -0.0735 0.0571 -0.0735 0.0816 -0.1388 0.049 -0.1388 -0.0408 0 0.0653 -0.1388 0.2367 -0.302 0.2449 -0.2449 0.3184 -0.2857 0.3755 -0.1878 0.0408 0.0653 0.0408 0.1633 0.0082 0.2286 -0.0408 0.0735 -0.0163 0.2204 0.0571 0.3673 0.1224 0.2531 0.0571 0.5061 -0.1306 0.5061 -0.049 0 -0.1143 0.0245 -0.1469 0.0653 -0.0327 0.0327 -0.098 0.0571 -0.1469 0.0571 -0.0653 0 -0.0653 -0.0245 0 -0.0653z"/>
  <path d="M18 26.6857 c-0.0327 -0.0898 -0.0327 -0.1878 -0.0082 -0.2122 0.0245 -0.0327 0.049 0.0082 0.049 0.0898 0 0.0735 0.0408 0.1143 0.0816 0.0898 0.049 -0.0245 0.0816 -0.0163 0.0816 0.0327 0 0.1633 -0.1551 0.1714 -0.2041 0z"/>
  <path d="M16.9796 26.3755 c-0.1224 -0.2286 -0.098 -0.3347 0.0653 -0.3265 0.0816 0 0.098 0.0245 0.0408 0.049 -0.0571 0.0163 -0.1061 0.0735 -0.1061 0.1143 0 0.049 0.0327 0.0571 0.0816 0.0327 0.049 -0.0327 0.0571 0.0082 0.0245 0.0898 -0.0408 0.1061 -0.0245 0.1224 0.0571 0.0735 0.0735 -0.0408 0.0898 -0.0327 0.049 0.0245 -0.0816 0.1306 -0.1143 0.1224 -0.2122 -0.0571z"/>
  <path d="M17.5673 25.8531 c0.0245 -0.3918 0.098 -0.4082 0.1878 -0.049 0.0327 0.1388 0.0082 0.2449 -0.0816 0.3184 -0.1143 0.0898 -0.1224 0.0653 -0.1061 -0.2694z"/>
  <path d="M16.7265 25.8857 c0.1143 -0.2041 0.1633 -0.2204 0.1388 -0.0327 -0.0163 0.0735 -0.0653 0.1551 -0.1224 0.1714 -0.0816 0.0245 -0.0816 0 -0.0163 -0.1388z"/>
  <path d="M17.1102 25.8204 c-0.0327 -0.0735 -0.0163 -0.1714 0.0327 -0.2204 0.0571 -0.0571 0.0816 -0.0163 0.0816 0.1388 0 0.2531 -0.0408 0.2776 -0.1143 0.0816z"/>
  <path d="M18.1306 25.249 c-0.0082 -0.2122 0.0163 -0.3429 0.0571 -0.3184 0.1143 0.0735 0.1633 0.6122 0.0571 0.6531 -0.0571 0.0163 -0.098 -0.1061 -0.1143 -0.3347z"/>
  <path d="M16.7918 25.3388 c-0.0735 -0.0816 -0.0735 -0.1959 0.0082 -0.1878 0.1551 0.0245 0.2041 -0.0163 0.098 -0.0898 -0.098 -0.0571 -0.1061 -0.1061 -0.0327 -0.2286 0.0735 -0.1143 0.0735 -0.2122 -0.0082 -0.3918 l-0.1061 -0.2449 0.2776 0.1224 c0.2776 0.1224 0.3673 0.2531 0.1796 0.2531 -0.0816 0 -0.0735 0.0245 0.0082 0.0735 0.0571 0.0408 0.0816 0.1143 0.049 0.1714 -0.049 0.0735 -0.0735 0.0735 -0.1306 -0.0082 -0.049 -0.0735 -0.0735 -0.0082 -0.0735 0.1959 0 0.1714 -0.0327 0.2939 -0.0735 0.2694 -0.0408 -0.0327 -0.0898 -0.0082 -0.1061 0.0408 -0.0163 0.0408 -0.0571 0.0571 -0.0898 0.0245z"/>
  <path d="M17.1429 25.1918 c0 -0.1306 0.2204 -0.2367 0.2857 -0.1306 0.0245 0.0408 -0.0327 0.1143 -0.1224 0.1633 -0.1306 0.0653 -0.1633 0.0653 -0.1633 -0.0327z"/>
  <path d="M17.9429 24.5388 c-0.1796 -0.0653 -0.2286 -0.1306 -0.2286 -0.3265 0 -0.2286 -0.0082 -0.2367 -0.1224 -0.0816 -0.0653 0.0816 -0.1224 0.1224 -0.1224 0.0735 0 -0.0408 -0.0327 -0.0327 -0.0735 0.0327 -0.049 0.0735 -0.1143 0.0816 -0.1796 0.0408 -0.0653 -0.0408 -0.1469 -0.0735 -0.1878 -0.0735 -0.0408 0 -0.1143 -0.0653 -0.1551 -0.1388 -0.0653 -0.1061 -0.0163 -0.351 0.2122 -1.0286 0.1633 -0.4898 0.302 -0.9551 0.302 -1.0286 0 -0.0898 0.0408 -0.1143 0.098 -0.0816 0.0653 0.0408 0.0735 0.0163 0.0327 -0.0898 -0.0245 -0.0816 0 -0.2204 0.0653 -0.3184 0.0653 -0.1061 0.1306 -0.5388 0.1714 -1.0857 0.049 -0.7918 0.0735 -0.9061 0.1959 -0.8735 0.0735 0.0245 0.0408 -0.0163 -0.0735 -0.0816 -0.1143 -0.0653 -0.1633 -0.1306 -0.1224 -0.1306 0.049 0 0.1551 -0.0245 0.2449 -0.049 0.1306 -0.0327 0.1714 0 0.1878 0.1633 0.0082 0.1143 -0.0245 0.2286 -0.0653 0.2531 -0.049 0.0245 -0.0816 0.1306 -0.0735 0.2286 0 0.1714 0.0082 0.1714 0.0653 0.0245 0.0571 -0.1551 0.0653 -0.1551 0.1061 0.0082 0.0327 0.1143 0 0.1959 -0.0816 0.2286 -0.1061 0.0408 -0.1061 0.0571 0.0245 0.1469 0.1306 0.098 0.1388 0.2531 0.0735 2.1878 l-0.0735 2.0816 -0.2204 -0.0816z m-0.849 -0.8898 c0.0327 -0.1551 0.0245 -0.2122 -0.0327 -0.1796 -0.0408 0.0245 -0.0816 0.1469 -0.0816 0.2612 0 0.2612 0.0408 0.2286 0.1143 -0.0816z m0.3673 -0.6612 c0 -0.049 -0.0408 -0.1633 -0.0816 -0.2531 -0.0653 -0.1388 -0.0653 -0.1306 -0.0327 0.0571 0.0245 0.1224 0.0082 0.2449 -0.0408 0.2694 -0.0408 0.0245 -0.0816 0.1143 -0.0816 0.1878 0.0082 0.1224 0.0163 0.1224 0.1224 -0.0163 0.0653 -0.0898 0.1224 -0.2041 0.1143 -0.2449z m0.5061 -0.6449 c-0.0653 -0.0653 -0.0898 -0.0571 -0.0898 0.0327 0 0.1633 0.1061 0.2776 0.1469 0.1551 0.0245 -0.0571 -0.0082 -0.1388 -0.0571 -0.1878z"/>
  <path d="M16.3102 23.649 c0.1224 -0.2449 0.2367 -0.4408 0.2449 -0.4245 0.0653 0.0653 -0.1633 0.6041 -0.3102 0.7347 -0.1306 0.1224 -0.1224 0.0653 0.0653 -0.3102z"/>
  <path d="M17.6653 18.9633 c-0.1306 -0.4245 -0.2286 -0.5388 -0.5633 -0.6857 -0.2041 -0.0898 -0.3673 -0.1959 -0.3673 -0.2286 0 -0.0408 -0.1143 -0.1143 -0.2449 -0.1714 -0.1388 -0.0571 -0.302 -0.1796 -0.3755 -0.2776 -0.0653 -0.0898 -0.1388 -0.1633 -0.1551 -0.1469 -0.1388 0.0653 -0.1143 -0.0082 0.049 -0.1306 0.1224 -0.1061 0.1551 -0.1714 0.0898 -0.2122 -0.0571 -0.0327 -0.098 -0.0163 -0.098 0.0245 0 0.049 -0.0408 0.0898 -0.0898 0.0898 -0.0653 0 -0.0653 -0.0408 0.0082 -0.1224 0.1306 -0.1551 0.4408 -0.1633 0.3837 -0.0163 -0.0571 0.1469 0.1224 0.1469 0.2531 0 0.0816 -0.0816 0.0735 -0.1061 -0.0408 -0.1061 -0.1061 0 -0.0735 -0.0408 0.0898 -0.1224 0.2612 -0.1388 0.5388 -0.1633 0.5388 -0.0408 0 0.0816 -0.1224 0.1143 -0.2776 0.0898 -0.0408 -0.0082 -0.0327 0.0408 0.0245 0.1061 0.0571 0.0735 0.1878 0.1143 0.2857 0.098 0.0898 -0.0245 0.2286 -0.0408 0.3102 -0.0408 0.0898 -0.0082 0.1224 -0.0571 0.0816 -0.1878 -0.0245 -0.1143 -0.0163 -0.1551 0.049 -0.1143 0.0653 0.0327 0.098 0 0.098 -0.0816 0 -0.1306 0.0082 -0.1306 0.1143 0.0082 0.0653 0.0898 0.098 0.1959 0.0735 0.2367 -0.0245 0.0408 0 0.049 0.0653 0.0327 0.0653 -0.0245 0.1061 -0.0898 0.0898 -0.1469 -0.0082 -0.049 0.0245 -0.0816 0.0816 -0.0653 0.1469 0.049 0.1959 0.3592 0.1633 0.9469 -0.0245 0.4163 -0.0571 0.5061 -0.1469 0.4735 -0.0735 -0.0245 -0.098 -0.0082 -0.0735 0.0327 0.0245 0.049 0.0082 0.0816 -0.0408 0.0816 -0.049 0 -0.0653 0.0816 -0.0327 0.2041 0.0408 0.1551 0.0163 0.2041 -0.0816 0.2041 -0.0735 0 -0.1306 -0.0408 -0.1306 -0.098 0 -0.049 -0.0245 -0.0653 -0.049 -0.0408 -0.0327 0.0327 -0.0082 0.1061 0.049 0.1796 0.0816 0.098 0.0816 0.1224 0 0.1224 -0.0816 0 -0.0816 0.0245 0 0.1224 0.0735 0.0898 0.0735 0.1224 0.0082 0.1224 -0.049 0 -0.1143 -0.0653 -0.1388 -0.1388z m-0.9714 -1.3388 c-0.0571 -0.0816 -0.2857 -0.0082 -0.2857 0.0898 0 0.0408 0.0735 0.049 0.1633 0.0245 0.0898 -0.0245 0.1388 -0.0735 0.1224 -0.1143z m1.4286 -0.0082 c0 -0.1306 -0.0245 -0.1551 -0.0898 -0.0898 -0.049 0.049 -0.0653 0.1306 -0.0408 0.1796 0.0898 0.1388 0.1306 0.1061 0.1306 -0.0898z m-1.3061 -0.1469 c-0.098 -0.1878 -0.2122 -0.2122 -0.2939 -0.0571 -0.0327 0.049 -0.0327 0.0735 0.0082 0.0408 0.0327 -0.0327 0.1143 -0.0082 0.1796 0.0571 0.1633 0.1714 0.2122 0.1551 0.1061 -0.0408z"/>
  <path d="M15.2 17.8286 c-0.2286 -0.049 -0.4653 -0.1306 -0.5224 -0.1714 -0.0571 -0.049 -0.2286 -0.1061 -0.3755 -0.1306 -0.351 -0.0735 -1.649 -0.6939 -1.649 -0.7918 0 -0.049 -0.0408 -0.0816 -0.098 -0.0816 -0.1306 0 -1.1102 -0.6449 -1.2327 -0.8082 -0.0571 -0.0735 -0.2939 -0.2939 -0.5224 -0.4898 -0.2367 -0.1959 -0.4327 -0.3918 -0.4327 -0.4245 0 -0.0735 0.7837 0.2939 0.9796 0.4571 0.1959 0.1633 1.7878 0.9714 2.2857 1.1592 1.2408 0.4653 1.5755 0.6286 1.6082 0.7673 0.0245 0.0898 0.0898 0.1551 0.1388 0.1551 0.0571 0 0.2041 0.1061 0.3347 0.2367 0.2612 0.2776 0.2122 0.2939 -0.5143 0.1224z"/>
  <path d="M18.5878 17.1265 l-0.0408 -0.7592 0.3592 -0.3429 c0.1959 -0.1878 0.4898 -0.4327 0.6612 -0.5469 0.1714 -0.1061 0.4571 -0.3347 0.6286 -0.4898 0.1796 -0.1633 0.3592 -0.2939 0.3918 -0.2939 0.0408 0 0.049 -0.0327 0.0245 -0.0816 -0.0245 -0.0408 -0.0163 -0.0816 0.0163 -0.0816 0.0653 0 0.8 -0.6122 0.9388 -0.7755 0.0327 -0.0408 0.2122 -0.2449 0.4 -0.449 0.3184 -0.351 0.8816 -1.0531 1.1347 -1.4204 0.2694 -0.4 0.5959 -0.7918 0.6204 -0.7592 0.049 0.0408 -0.1878 1.6 -0.3102 2.0898 -0.0898 0.351 -0.302 0.8653 -0.4816 1.151 -0.0408 0.0653 -0.1469 0.2776 -0.2367 0.4653 -0.2122 0.4327 -0.8653 1.151 -1.551 1.698 -0.5224 0.4163 -0.6449 0.4898 -1.5673 0.9469 -0.2531 0.1224 -0.4816 0.2694 -0.5143 0.3102 -0.0245 0.049 -0.1388 0.0898 -0.2367 0.0898 -0.1878 0 -0.1959 -0.0327 -0.2367 -0.751z"/>
  <path d="M15.3714 16.9959 c-0.049 -0.0327 -0.0816 -0.1633 -0.0735 -0.2857 0.0163 -0.1224 0 -0.2204 -0.0408 -0.2204 -0.0327 0 -0.1143 -0.0245 -0.1878 -0.049 -0.0898 -0.0327 -0.1306 -0.0082 -0.1306 0.0816 0 0.0735 -0.049 0.1306 -0.1143 0.1306 -0.1306 0 -0.5388 -0.3673 -0.5388 -0.4898 0 -0.0408 -0.0571 -0.0816 -0.1224 -0.0816 -0.0735 0 -0.098 0.049 -0.0735 0.1224 0.0327 0.0653 0.0816 0.098 0.1224 0.0735 0.0408 -0.0245 0.0735 0 0.0735 0.0408 0 0.1143 -0.0082 0.1143 -0.3592 -0.0327 -0.302 -0.1306 -0.3673 -0.2286 -0.1959 -0.3347 0.049 -0.0327 0.0653 -0.0245 0.0408 0.0245 -0.0327 0.049 -0.0082 0.1061 0.0571 0.1306 0.0653 0.0245 0.1388 -0.0082 0.1633 -0.0735 0.0245 -0.0653 0.0163 -0.1143 -0.0245 -0.1143 -0.0327 0 -0.0653 -0.049 -0.0653 -0.1143 0 -0.1388 0.2122 -0.0571 0.7918 0.2939 0.2041 0.1224 0.4898 0.2776 0.6367 0.3429 0.1388 0.0653 0.2612 0.1633 0.2612 0.2041 0 0.049 0.0571 0.0898 0.1388 0.0898 0.1061 0 0.0898 0.0327 -0.0571 0.1633 -0.1061 0.0898 -0.1878 0.1633 -0.1959 0.1633 -0.0082 0 -0.049 -0.0327 -0.1061 -0.0653z"/>
  <path d="M16 16.5306 c-0.0571 -0.0653 -0.1469 -0.1224 -0.1959 -0.1224 -0.0571 0 -0.2286 -0.1143 -0.3755 -0.2449 -0.2367 -0.2122 -1.502 -0.898 -1.6571 -0.898 -0.0327 0 -0.2041 -0.0898 -0.3837 -0.2041 -0.1796 -0.1143 -0.4898 -0.2694 -0.6939 -0.351 -0.1959 -0.0735 -0.5959 -0.3429 -0.898 -0.5878 -0.2939 -0.2449 -0.6367 -0.5061 -0.7592 -0.5714 -0.351 -0.1959 -1.3469 -1.0286 -1.5755 -1.3224 -0.2939 -0.3837 -0.4653 -1.6816 -0.3347 -2.5061 0.0571 -0.3102 0.098 -0.6776 0.098 -0.8163 0 -0.1306 0.0571 -0.2939 0.1224 -0.3673 0.0653 -0.0653 0.1224 -0.2204 0.1306 -0.351 0 -0.1878 0.0245 -0.1633 0.1306 0.1633 0.2612 0.7673 1.4122 1.5918 2.3347 1.6735 0.5224 0.0408 1.2735 -0.1959 1.8122 -0.5714 0.2122 -0.1469 0.4408 -0.302 0.5224 -0.351 0.2204 -0.1388 0.6612 -0.6449 0.6612 -0.7755 0.0082 -0.1878 0.3184 -0.7184 0.3265 -0.5469 0 0.1796 0.2041 0.1796 0.4 -0.0163 0.2041 -0.2041 0.7755 -0.2776 1.3224 -0.1714 0.4408 0.0898 0.9878 0.3184 1.0367 0.4327 0.0163 0.0327 0.0816 0.0571 0.1388 0.0571 0.0571 0 0.1224 -0.0245 0.1469 -0.0571 0.0163 -0.0408 0.0245 -0.0245 0.0163 0.0163 -0.0163 0.049 0.0163 0.3837 0.0735 0.7347 0.098 0.702 0.3429 1.2163 0.7592 1.6082 0.3673 0.351 1.5918 0.7184 2.4571 0.7347 0.3918 0.0082 0.8 -0.0163 0.9143 -0.0408 0.1143 -0.0327 0.1551 -0.0327 0.1061 -0.0082 -0.0571 0.0245 -0.3265 0.3265 -0.5959 0.6694 -0.2694 0.3429 -0.5306 0.6694 -0.5714 0.7265 -0.049 0.0571 -0.0816 0.1224 -0.0816 0.1551 0 0.1633 -1.7388 1.8694 -2.2041 2.1633 -0.1143 0.0735 -0.3184 0.2367 -0.4571 0.3673 -0.4245 0.3918 -1.2898 1.1429 -1.4041 1.2082 -0.0816 0.049 -1.102 0.2939 -1.2082 0.2939 -0.0082 0 -0.0571 -0.0571 -0.1143 -0.1224z m0.9306 -2.5796 c0.1551 -0.1388 -0.049 -0.1878 -0.6857 -0.1633 -0.6531 0.0163 -0.9796 -0.0735 -0.9796 -0.2776 0 -0.1306 -0.2857 -0.2367 -0.4163 -0.1633 -0.1224 0.0816 -0.2367 0.4245 -0.1878 0.5633 0.0327 0.0898 0.2122 0.1306 0.5878 0.1551 0.702 0.0327 1.5837 -0.0245 1.6816 -0.1143z"/>
  <path d="M18.1796 16.0408 c0.1633 -0.1551 0.3347 -0.2531 0.3755 -0.2286 0.049 0.0245 0.0571 0.0082 0.0327 -0.0327 -0.049 -0.0816 0.4245 -0.5143 0.5551 -0.5143 0.0245 0 0.1388 -0.0898 0.2449 -0.1959 0.098 -0.1061 0.3265 -0.2776 0.5061 -0.3837 0.1714 -0.098 0.3347 -0.2286 0.3673 -0.2694 0.0408 -0.0571 0.0653 -0.0408 0.0653 0.0408 0 0.0735 -0.098 0.1796 -0.2204 0.2449 -0.1143 0.0653 -0.3837 0.2694 -0.5878 0.4571 -0.2041 0.1959 -0.4082 0.351 -0.4408 0.351 -0.0408 0 -0.1633 0.1143 -0.2776 0.2449 -0.1061 0.1388 -0.2367 0.2286 -0.2694 0.2041 -0.0408 -0.0245 -0.1796 0.049 -0.3102 0.1633 -0.3592 0.302 -0.3918 0.2449 -0.0408 -0.0816z"/>
  <path d="M13.249 16.0245 c-0.0571 -0.0163 -0.1061 -0.1469 -0.1061 -0.2776 0 -0.1551 -0.049 -0.2531 -0.1388 -0.2857 -0.0816 -0.0245 -0.2041 -0.0735 -0.2776 -0.1143 -0.098 -0.049 -0.1143 -0.0245 -0.0898 0.1796 l0.0408 0.2449 -0.2122 -0.1388 c-0.2041 -0.1306 -0.2204 -0.3347 -0.0327 -0.4571 0.0408 -0.0327 0.0408 -0.0735 -0.0163 -0.1061 -0.049 -0.0327 -0.0898 -0.0163 -0.0898 0.0408 0 0.0653 -0.0327 0.0653 -0.1224 -0.0082 -0.0735 -0.0571 -0.1551 -0.0816 -0.1796 -0.049 -0.0327 0.0327 -0.0245 0.0816 0.0163 0.1143 0.1143 0.0816 0.1388 0.2612 0.0408 0.2612 -0.0408 0 -0.0816 -0.0408 -0.0816 -0.0816 0 -0.049 -0.1306 -0.1469 -0.2857 -0.2204 -0.1551 -0.0735 -0.2857 -0.1796 -0.2857 -0.2367 0 -0.1224 -0.2041 -0.2041 -0.3592 -0.1469 -0.0653 0.0245 -0.1388 0 -0.1796 -0.0571 -0.0408 -0.0735 -0.0163 -0.0816 0.0735 -0.049 0.0653 0.0245 0.1714 -0.0082 0.2204 -0.0735 0.0816 -0.0898 0.0816 -0.1143 0.0082 -0.1143 -0.0571 0 -0.0735 -0.0408 -0.0408 -0.098 0.0408 -0.0571 0.0163 -0.0735 -0.0735 -0.0408 -0.1224 0.049 -0.2122 -0.0327 -0.6449 -0.6041 -0.0816 -0.098 -0.1224 -0.2041 -0.098 -0.2286 0.0245 -0.0245 0.0816 0.0163 0.1224 0.098 0.049 0.0735 0.1878 0.1959 0.3265 0.2612 0.1388 0.0735 0.2204 0.1714 0.1878 0.2204 -0.0327 0.0571 -0.0245 0.0653 0.0327 0.0327 0.098 -0.0571 0.449 0.2367 0.5143 0.4327 0.0245 0.0653 0.1306 0.1143 0.2367 0.1224 0.1878 0.0082 0.351 0.2122 0.1633 0.2122 -0.049 0 -0.0653 -0.0327 -0.0408 -0.0816 0.0245 -0.0408 0.0082 -0.0816 -0.0327 -0.0816 -0.1061 0 -0.1143 0.0816 -0.0163 0.2286 0.049 0.0898 0.1061 0.0898 0.2204 0.0245 0.1306 -0.0735 0.2939 -0.0245 0.9224 0.2939 0.4245 0.2204 0.7918 0.449 0.8082 0.5061 0.0245 0.0653 0 0.0898 -0.049 0.0653 -0.0408 -0.0327 -0.098 0.0163 -0.1224 0.1061 -0.0408 0.1551 -0.1551 0.1959 -0.3592 0.1061z"/>
  <path d="M10.049 14.4 c-0.2122 -0.1061 -0.4327 -0.4816 -0.5306 -0.8735 -0.0327 -0.1551 -0.0245 -0.2122 0.0327 -0.1796 0.0408 0.0245 0.0816 0.1143 0.0816 0.1878 0 0.0735 0.0408 0.1959 0.0816 0.2612 0.0571 0.0898 0.0653 0.0735 0.049 -0.0898 -0.0082 -0.1061 -0.049 -0.2531 -0.0816 -0.3102 -0.0898 -0.1388 0.0163 -0.2204 0.1306 -0.1061 0.0571 0.0571 0.098 0.2449 0.1061 0.4245 0 0.1796 0.0327 0.3265 0.0653 0.3265 0.0327 0 0.0816 0 0.1224 0 0.0327 0 0.0163 -0.0327 -0.0408 -0.0653 -0.0653 -0.0408 -0.0653 -0.098 0.0163 -0.2041 0.098 -0.1306 0.1143 -0.1224 0.3184 0.1061 0.2367 0.2857 0.2694 0.449 0.1143 0.5469 -0.1551 0.0898 -0.2531 0.0898 -0.4653 -0.0245z m0.3918 -0.1551 c0.0898 0.1388 0.098 0.1388 0.0571 0.0163 -0.0245 -0.0816 -0.049 -0.1796 -0.049 -0.2204 0 -0.0327 -0.0571 -0.0816 -0.1224 -0.1143 -0.098 -0.0327 -0.1224 0.0245 -0.1143 0.2612 0.0082 0.2612 0.0163 0.2776 0.0653 0.098 0.0571 -0.1959 0.0571 -0.1959 0.1633 -0.0408z"/>
  <path d="M20.4898 14.1633 c0 -0.0735 0.049 -0.098 0.1224 -0.0735 0.0653 0.0327 0.098 0.0816 0.0735 0.1224 -0.0653 0.1143 -0.1959 0.0816 -0.1959 -0.049z"/>
  <path d="M20.9224 13.7551 c0.0327 -0.0735 0.0571 -0.1714 0.0571 -0.2122 0 -0.0327 0.0571 -0.049 0.1224 -0.0245 0.0816 0.0327 0.1224 0 0.1224 -0.1143 0 -0.0898 0.1143 -0.2612 0.2449 -0.3673 0.1388 -0.1143 0.2449 -0.2612 0.2449 -0.3265 0 -0.1551 0.3592 -0.4816 0.449 -0.4082 0.0327 0.0408 0.049 0.0245 0.0163 -0.0163 -0.0571 -0.1061 0.0653 -0.3184 0.1878 -0.3347 0.0408 -0.0082 0.1224 -0.0163 0.1714 -0.0245 0.0408 0 0.0571 -0.049 0.0327 -0.0898 -0.0327 -0.049 -0.0898 -0.0653 -0.1306 -0.0408 -0.0408 0.0245 -0.049 0 -0.0245 -0.0571 0.0571 -0.1224 1.4204 -1.3224 1.4204 -1.249 0 0.1633 -0.8082 1.0776 -0.9143 1.0367 -0.0408 -0.0082 -0.0653 0.049 -0.0653 0.1306 0 0.0735 -0.0816 0.2286 -0.1878 0.3429 -0.1061 0.1143 -0.2122 0.2694 -0.2449 0.351 -0.0245 0.0735 -0.1061 0.1388 -0.1633 0.1388 -0.0653 0 -0.1551 0.0898 -0.2041 0.2041 -0.049 0.1061 -0.1878 0.2204 -0.3102 0.2531 -0.1551 0.0408 -0.1796 0.0735 -0.1061 0.1224 0.0898 0.049 0.049 0.1388 -0.1714 0.3592 -0.1551 0.1551 -0.3592 0.3265 -0.4408 0.3755 -0.1306 0.0816 -0.1469 0.0735 -0.1061 -0.049z"/>
  <path d="M9.5592 12.9633 l-0.1143 -0.1878 0.1959 0.1633 c0.1061 0.0898 0.2122 0.1714 0.2286 0.1796 0.0163 0.0163 -0.0163 0.0245 -0.0816 0.0245 -0.0653 0 -0.1633 -0.0816 -0.2286 -0.1796z"/>
  <path d="M20.9469 10.6857 c-0.6122 -0.098 -1.4857 -0.4653 -1.7061 -0.7102 -0.0653 -0.0735 -0.2204 -0.3673 -0.3347 -0.6449 -0.1796 -0.4408 -0.2122 -0.6286 -0.2122 -1.3469 0.0082 -1.0939 0.0898 -1.4367 0.4245 -1.7306 0.1469 -0.1224 0.4163 -0.3673 0.5959 -0.5388 0.4571 -0.4327 1.0122 -0.5959 1.8122 -0.5469 1.0041 0.0571 1.249 0.1633 1.5184 0.6449 0.3755 0.6694 0.5551 1.3714 0.5959 2.3347 0.0163 0.4816 0.049 1.0041 0.0735 1.1592 0.049 0.3102 -0.1551 0.6694 -0.5388 0.9633 -0.498 0.3837 -1.4041 0.5551 -2.2286 0.4163z m-0.8 -2.3755 c0.1224 -0.1224 0.1224 -0.4082 0 -0.6776 -0.1878 -0.4082 -0.5959 -0.1306 -0.6041 0.4327 -0.0082 0.3347 -0.0082 0.3429 0.2449 0.3429 0.1469 0 0.302 -0.0408 0.3592 -0.098z m1.9755 -1.7633 c0 -0.098 -0.7184 -0.4408 -0.8163 -0.3837 -0.1469 0.0898 -0.049 0.2286 0.2531 0.3347 0.3265 0.1143 0.5633 0.1388 0.5633 0.049z"/>
  <path d="M11.4122 9.4857 c-0.2041 -0.0735 -0.5959 -0.3102 -0.8571 -0.5143 -0.4245 -0.3265 -0.498 -0.4327 -0.6286 -0.8735 -0.1959 -0.6286 -0.1469 -1.0367 0.1878 -1.7388 0.2694 -0.5796 1.1673 -1.6735 1.6816 -2.0735 0.4082 -0.302 0.6857 -0.2857 1.502 0.0898 0.7347 0.3347 0.9061 0.4898 1.298 1.1347 0.2939 0.4735 0.302 0.5143 0.302 1.2653 0 0.702 -0.0245 0.8245 -0.2449 1.2571 -0.3592 0.702 -1.1429 1.2898 -1.9918 1.4857 -0.5796 0.1388 -0.7755 0.1306 -1.249 -0.0327z m2.0735 -1.249 c0.1388 -0.1796 0.1469 -0.2531 0.0735 -0.5388 -0.1306 -0.4816 -0.3102 -0.5061 -0.498 -0.0816 -0.1878 0.4 -0.2041 0.6367 -0.0653 0.7755 0.1469 0.1469 0.3102 0.0898 0.4898 -0.1551z m-1.5265 -1.9673 c0.1551 -0.1061 0.2857 -0.2367 0.2857 -0.2857 0 -0.1469 -0.3184 -0.1306 -0.3755 0.0163 -0.0327 0.0653 -0.1143 0.1224 -0.1959 0.1224 -0.1796 0 -0.2776 0.1224 -0.2041 0.2449 0.0735 0.1224 0.1796 0.098 0.4898 -0.098z"/>
  <path d="M23.9918 8.0816 c0 -0.5469 -0.1633 -1.3714 -0.3592 -1.8367 -0.1551 -0.3592 0.1796 0.0408 0.4082 0.4898 0.2122 0.4245 0.2204 0.5061 0.1796 1.1184 -0.0571 0.8816 -0.2204 1.0449 -0.2286 0.2286z"/>
  <path d="M18.2531 7.7714 c-0.1551 -0.2531 -1.1673 -0.5878 -1.7959 -0.5878 -0.4327 0 -1.0286 0.1469 -1.0286 0.2612 0 0.0327 -0.0327 0.0653 -0.0735 0.0653 -0.0408 0 -0.0571 -0.1878 -0.0327 -0.4327 0.0571 -0.5796 -0.2041 -1.4367 -0.6041 -1.9918 -0.3429 -0.4571 -0.898 -0.8735 -1.5184 -1.1265 -0.2204 -0.0898 -0.4 -0.1959 -0.4 -0.2449 -0.0082 -0.0408 0.2857 -0.2041 0.6531 -0.351 1.5429 -0.6204 3.3224 -0.898 4.9551 -0.751 1.0041 0.0898 2.9551 0.4653 3.1184 0.6041 0.1469 0.1143 0.6122 0.5878 0.7347 0.7347 0.1224 0.1469 0.449 0.9469 0.3837 0.9469 -0.0163 0 -0.3918 -0.0408 -0.8163 -0.0898 -1.1755 -0.1306 -1.5755 -0.0245 -2.1959 0.5796 -0.2694 0.2612 -0.5796 0.4898 -0.6857 0.5061 -0.2449 0.0327 -0.4 0.4245 -0.5306 1.3306 -0.0571 0.3918 -0.1224 0.6122 -0.1633 0.5469z"/>
  <path d="M10 5.7959 c0.1061 -0.3837 0.3837 -0.8082 0.498 -0.7592 0.0898 0.0327 0.0735 0.098 -0.0735 0.2857 -0.098 0.1306 -0.2449 0.3429 -0.3265 0.4571 l-0.1551 0.2204 0.0571 -0.2041z"/>
  <path d="M10.7755 4.751 c0 -0.0735 0.2449 -0.3102 0.5306 -0.5061 0.0898 -0.0653 0.0163 0.0408 -0.1633 0.2286 -0.3347 0.3592 -0.3673 0.3837 -0.3673 0.2776z"/>
</g>

</svg>