<!DOCTYPE svg PUBLIC "-//W3C//DTD SVG 20010904//EN" "http://www.w3.org/TR/2001/REC-SVG-20010904/DTD/svg10.dtd">
<svg version="1.0" xmlns="http://www.w3.org/2000/svg" width="64px" height="64px" viewBox="0 0 64 64" preserveAspectRatio="xMidYMid meet">
 <g id="layer101" fill="#030d10" stroke="none">
  <path d="M28.1633 63.7388 c-7.4776 -1.0122 -13.6327 -4 -18.7592 -9.1429 -11.3469 -11.3469 -12.5551 -29.0449 -2.8408 -41.9755 6.5306 -8.7184 17.8449 -13.6327 28.6694 -12.4408 7.5102 0.8163 14.1551 3.9837 19.4286 9.2898 6.8898 6.9061 10.3184 16.8 9.0939 26.2367 -1.6163 12.3592 -9.7796 22.4816 -21.3388 26.4816 -4.6041 1.5837 -9.8122 2.1551 -14.2531 1.551z"/>
</g>
 <g id="layer102" fill="#1f373d" stroke="none">
  <path d="M28.1633 63.7388 c-7.4776 -1.0122 -13.6327 -4 -18.7592 -9.1429 -11.3469 -11.3469 -12.5551 -29.0449 -2.8408 -41.9755 6.5306 -8.7184 17.8449 -13.6327 28.6694 -12.4408 7.5102 0.8163 14.1551 3.9837 19.4286 9.2898 6.8898 6.9061 10.3184 16.8 9.0939 26.2367 -1.6163 12.3592 -9.7796 22.4816 -21.3388 26.4816 -4.6041 1.5837 -9.8122 2.1551 -14.2531 1.551z m12.2122 -5.3714 c0.6204 -0.2612 1.4204 -1.2571 1.4204 -1.7469 0 -0.3265 -0.1796 -0.3755 -0.4408 -0.1143 -0.1306 0.1306 -0.3102 -0.0163 -0.6694 -0.5388 -0.2776 -0.3755 -0.9633 -1.1429 -1.5184 -1.6816 -1.7959 -1.7469 -1.9429 -2.5143 -1.9592 -9.5184 0 -2.7592 -0.0327 -5.4204 -0.0653 -5.9102 -0.0327 -0.4898 -0.0163 -1.2245 0.0163 -1.6327 0.0816 -0.6531 0.1633 -0.7673 0.6857 -1.0122 0.4571 -0.2286 0.6204 -0.2449 0.7184 -0.0816 0.1469 0.2286 0.0653 4.0653 -0.1796 7.7061 -0.098 1.4367 -0.1306 3.0204 -0.098 3.5102 0.049 0.4898 0.1143 1.6816 0.1469 2.6286 0.0327 0.9633 0.1143 1.8286 0.1796 1.9265 0.0653 0.1143 -0.0163 0.3429 -0.1633 0.5061 -0.3102 0.3429 -0.2122 0.6531 0.1959 0.6531 0.1469 0 0.5061 0.1796 0.8 0.4082 0.2939 0.2286 0.5714 0.4082 0.6204 0.4082 0.049 0 0.3755 0.1959 0.7184 0.4571 0.3592 0.2449 0.9959 0.6857 1.4367 0.9959 0.4408 0.3102 0.8327 0.6204 0.8816 0.6857 0.1306 0.1796 1.3224 0.4735 1.2245 0.2939 -0.0653 -0.0816 -0.2122 -0.1469 -0.3592 -0.1469 -0.2776 0 -1.2082 -0.6531 -1.7633 -1.2245 -0.2449 -0.2612 -2.5469 -2.1388 -2.8245 -2.302 -0.1959 -0.1143 -0.4245 -6.1714 -0.3429 -8.5714 0.0653 -1.5673 0.1143 -4.0653 0.1306 -5.551 0.0163 -3.1184 0.0163 -3.102 1.4857 -3.7551 0.4898 -0.2122 0.9796 -0.4735 1.0612 -0.5714 0.098 -0.098 0.5388 -0.4571 0.9796 -0.8 1.6163 -1.2571 3.1184 -2.9388 3.7388 -4.2122 0.3265 -0.6694 0.5878 -1.2735 0.5878 -1.3224 0 -0.0653 0.1633 -0.4571 0.3429 -0.8816 0.1959 -0.4245 0.4571 -1.4694 0.5714 -2.3184 0.1143 -0.849 0.3102 -2.351 0.4408 -3.3143 0.1306 -0.9796 0.1959 -1.9102 0.1633 -2.0898 -0.049 -0.1796 0.0327 -0.7347 0.1633 -1.2571 0.3429 -1.2082 0.3918 -3.6571 0.1143 -4.5714 -0.1633 -0.5224 -0.5878 -1.0939 -1.502 -2.0408 -0.702 -0.7184 -1.2735 -1.4041 -1.2735 -1.5184 0 -0.3755 -1.0122 -2.2531 -1.6163 -2.9714 -0.751 -0.898 -1.4367 -1.3224 -2.3184 -1.4367 -0.3918 -0.049 -0.8327 -0.1306 -0.9633 -0.1796 -0.1306 -0.049 -0.6531 -0.1469 -1.1429 -0.2286 -0.4898 -0.0653 -1.3061 -0.2122 -1.7959 -0.2939 -1.7143 -0.3429 -4.9633 -0.2612 -7.0204 0.1469 -2.3184 0.4571 -3.951 0.9469 -3.8367 1.1429 0.049 0.098 -0.0163 0.1143 -0.1469 0.0653 -0.1306 -0.049 -0.849 0.1959 -1.6 0.5551 -0.751 0.3592 -1.6163 0.702 -1.9265 0.7673 -0.3102 0.049 -0.751 0.1796 -0.9796 0.2939 -0.6694 0.3102 -2.1224 1.5837 -2.5796 2.2857 -0.2449 0.3592 -0.5714 0.8327 -0.7347 1.0776 -0.1469 0.2286 -0.2612 0.5388 -0.2449 0.6694 0.0653 0.5551 -0.2612 2.2857 -0.6531 3.4286 -0.2122 0.6694 -0.4082 1.3388 -0.4082 1.4694 0 0.1306 -0.0653 0.3265 -0.1306 0.4245 -0.2939 0.3592 -0.3592 2.9388 -0.2449 8.4898 0.0327 1.3714 0.0653 1.551 0.5878 2.4327 0.6041 0.9959 3.5755 4.0816 4.098 4.2449 0.1633 0.0653 0.3102 0.1633 0.3102 0.2449 0 0.0816 0.1959 0.2612 0.4571 0.4082 0.2449 0.1306 0.6531 0.4082 0.898 0.6204 l0.4571 0.3918 -0.0327 4.3918 c-0.0163 2.4163 -0.0163 4.6204 -0.0163 4.8816 0.0163 0.2776 -0.0816 1.7796 -0.2122 3.3469 -0.1306 1.5673 -0.2776 3.5265 -0.3102 4.3265 -0.049 0.8163 -0.1143 1.5837 -0.1633 1.7143 -0.0653 0.1306 -0.7347 0.8327 -1.4857 1.5347 -1.4041 1.3061 -2.5306 2.7102 -2.1551 2.7102 0.1143 0 0.3755 -0.2286 0.6041 -0.5061 0.6041 -0.751 1.7469 -1.8286 2.8735 -2.6776 l0.9959 -0.7673 0.098 -3.3633 c0.0653 -1.8612 0.1959 -3.7061 0.2776 -4.098 0.1143 -0.4408 0.1633 -2.7265 0.1306 -5.8286 -0.0163 -2.8082 0.0163 -5.1592 0.0816 -5.2245 0.0653 -0.0653 0.7347 0.1796 1.4694 0.5388 0.7347 0.3755 1.7469 0.8 2.2367 0.9633 0.4898 0.1469 0.9796 0.3265 1.0612 0.3918 0.2939 0.1959 2.0898 0.5224 2.8898 0.5224 0.6367 0 0.8816 0.098 1.3714 0.5224 0.5551 0.4898 0.9469 1.4857 0.5061 1.3061 -0.3592 -0.1306 -0.5551 0.4735 -0.4408 1.3714 0.049 0.4571 0.049 0.849 -0.0163 0.849 -0.1796 0 -0.3592 0.8327 -0.3265 1.4531 0.0327 0.2939 -0.0327 0.6041 -0.1306 0.6694 -0.098 0.049 -0.3265 0.4898 -0.4898 0.9469 -0.1796 0.4735 -0.2612 0.8163 -0.1796 0.7673 0.0816 -0.049 0.1959 0 0.2612 0.098 0.0653 0.1143 0.2612 -0.1469 0.4571 -0.6367 0.4571 -1.0776 0.6367 -1.2408 0.3265 -0.3265 -1.1918 3.6898 -1.551 4.4735 -2.0408 4.6204 -0.1633 0.049 -0.3265 0.1959 -0.3755 0.3265 -0.049 0.1306 -0.1633 0.2449 -0.2612 0.2449 -0.2612 0 -0.1959 -0.4571 0.098 -0.6204 0.3918 -0.2122 0.4408 -1.1265 0.0653 -1.2245 -0.1469 -0.0327 -0.3592 0.0653 -0.4735 0.2286 -0.1143 0.2122 -0.1306 0.3102 0 0.3102 0.0816 0 0.1143 0.0816 0.0653 0.1633 -0.0653 0.098 -0.1796 0.1306 -0.2612 0.0816 -0.0816 -0.0653 -0.1469 -0.0327 -0.1469 0.0653 0 0.0816 -0.1306 0.2776 -0.2776 0.4408 -0.2122 0.2122 -0.2286 0.3102 -0.0816 0.3592 0.098 0.0327 0.1959 0.2122 0.1959 0.4082 0 0.3265 0 0.3265 -0.2449 0.0163 -0.2286 -0.2939 -0.2286 -0.2776 -0.2449 0.2286 0 0.4735 0.049 0.5224 0.4898 0.5224 0.3755 0 0.6694 -0.1633 1.1429 -0.6857 0.3592 -0.3918 0.6531 -0.6204 0.6531 -0.5388 0 0.098 -0.1633 0.7184 -0.3429 1.3878 -0.2286 0.8 -0.3755 1.9265 -0.4245 3.2163 -0.0816 1.8612 -0.0653 2.0082 0.2122 2.1061 0.3918 0.1143 0.3918 0.1143 2.1224 1.2735 1.3714 0.9143 3.2163 1.7959 3.3959 1.6163 0.0327 -0.049 0.2122 0 0.3755 0.098 0.4408 0.2449 1.8776 0.2122 2.5469 -0.0653z m-7.8857 -11.4939 c0 -0.1633 0.1796 -0.4735 0.3918 -0.702 0.2286 -0.2122 0.4571 -0.5878 0.5061 -0.8327 0.098 -0.3755 0.0653 -0.4408 -0.2286 -0.4408 -0.3755 0 -0.751 0.5551 -0.5714 0.849 0.0653 0.098 0.049 0.1306 -0.0653 0.0653 -0.098 -0.049 -0.3265 0.1633 -0.5388 0.4898 -0.2939 0.4898 -0.3102 0.6204 -0.1306 0.7347 0.3755 0.2286 0.6367 0.1633 0.6367 -0.1633z"/>
  <path d="M36.5714 57.4041 c-0.2286 -0.098 -0.4571 -0.2449 -0.5061 -0.3265 -0.0653 -0.0653 -0.1796 -0.098 -0.2776 -0.0327 -0.098 0.049 -0.2122 0.0327 -0.2776 -0.0653 -0.049 -0.098 0.0653 -0.1633 0.2776 -0.1796 0.2122 0 0.2776 -0.049 0.1633 -0.098 -0.098 -0.0327 -0.1469 -0.1469 -0.098 -0.2286 0.1306 -0.2122 0.5551 0.1469 0.5551 0.4571 0 0.1306 0.0653 0.1959 0.1306 0.1469 0.1796 -0.1143 0.5714 0.1633 0.5061 0.3592 -0.049 0.098 -0.2122 0.0816 -0.4735 -0.0327z"/>
  <path d="M37.2408 56.9469 c-0.0163 -0.1633 -0.2122 -0.3102 -0.4735 -0.3755 -0.6204 -0.1306 -1.1918 -0.898 -1.0612 -1.4041 l0.098 -0.3918 -0.3429 0.4082 -0.3429 0.4082 -0.1633 -0.4082 c-0.0816 -0.2286 -0.1633 -0.3102 -0.1633 -0.1796 -0.0163 0.1306 0.1143 0.3755 0.2612 0.5388 0.4571 0.5061 0.4082 0.8 -0.0816 0.702 -0.4245 -0.0816 -0.4245 -0.0816 -0.0653 0.098 0.1959 0.1143 0.3592 0.2939 0.3592 0.4082 0 0.1633 -0.1143 0.1306 -0.3592 -0.0816 -0.2122 -0.1796 -0.5551 -0.4571 -0.7673 -0.6204 -0.3265 -0.2612 -0.3592 -0.3755 -0.1959 -0.6694 0.2286 -0.4245 0.2286 -0.6857 0 -0.6857 -0.098 0 -0.1469 0.1143 -0.0816 0.2449 0.1143 0.3102 -0.0163 0.3102 -0.3102 0.0163 -0.2612 -0.2449 -0.2449 -0.5061 0.0653 -1.0612 0.1633 -0.3102 0.2449 -0.3429 0.3592 -0.1633 0.0816 0.1306 0.1469 0.1469 0.1469 0.049 0 -0.2939 -0.1959 -0.4082 -0.4082 -0.2286 -0.2612 0.2286 -0.3755 -0.2286 -0.3429 -1.3061 0.0163 -0.4898 -0.0653 -0.9143 -0.1796 -0.9959 -0.1306 -0.1306 -0.1469 -0.2939 -0.0327 -0.5878 0.098 -0.2776 0.098 -0.4898 0 -0.5878 -0.2449 -0.2449 0.049 -1.4367 1.2735 -4.9306 0.3755 -1.1265 0.8163 -2.8408 0.9306 -3.6735 0.1306 -1.0776 0.1143 -2.7265 -0.049 -2.9878 -0.0653 -0.098 -0.1306 -0.4082 -0.1633 -0.6694 -0.049 -0.5061 -0.4571 -1.0776 -0.751 -1.0776 -0.2612 0 -2.3837 -1.4857 -2.6449 -1.8449 -0.1796 -0.2449 -0.1796 -0.3918 -0.0327 -0.6204 0.1143 -0.1796 0.2939 -0.3102 0.4082 -0.3102 0.1306 0 0.1633 -0.0816 0.098 -0.1959 -0.0816 -0.1143 -0.0327 -0.1469 0.1306 -0.0816 0.1469 0.049 0.6041 -0.0163 1.0449 -0.1469 0.5551 -0.1633 0.8327 -0.1796 0.9796 -0.049 0.1633 0.1306 0.3102 0.1143 0.5878 -0.0816 0.3918 -0.2776 1.0286 -0.3592 0.8816 -0.1143 -0.049 0.0653 0.0816 0.098 0.2939 0.0653 0.3265 -0.0653 0.3918 0 0.4735 0.5061 0.1306 0.7673 -0.049 2.5959 -0.2449 2.7265 -0.098 0.0653 -0.0816 0.1306 0.049 0.1796 0.1306 0.049 0.1633 0.1633 0.0653 0.3918 -0.0653 0.1633 -0.1143 0.3755 -0.098 0.4408 0.0163 0.0653 -0.0816 0.2449 -0.2122 0.3592 -0.1796 0.1796 -0.2449 0.1959 -0.3102 0.0327 -0.0327 -0.098 -0.098 0 -0.1469 0.2286 -0.0653 0.3592 -0.0327 0.4082 0.2939 0.3429 0.3265 -0.0653 0.3755 0.0163 0.4898 0.8816 0.1633 1.2735 0.1633 3.3469 0.0327 6.5143 -0.049 1.4367 -0.049 3.1673 0.0163 3.8367 0.1469 1.4041 0.098 1.7306 -0.2449 1.4531 -0.1306 -0.1143 -0.1796 -0.3429 -0.1306 -0.5551 0.049 -0.2122 0.0163 -0.5224 -0.0816 -0.6857 -0.1469 -0.2612 -0.1633 -0.2449 -0.1796 0.1143 0 0.3265 -0.0327 0.3592 -0.1796 0.1633 -0.1306 -0.1959 -0.1633 -0.1469 -0.098 0.1959 0.049 0.3265 0 0.4082 -0.1959 0.3592 -0.1469 -0.0327 -0.0816 0.0163 0.1469 0.1306 1.0939 0.5714 1.3388 0.8163 1.2408 1.3388 -0.0653 0.3429 -0.049 0.4245 0.049 0.2776 0.1306 -0.1959 0.1796 -0.1306 0.2776 0.2449 0.0653 0.2612 0.2939 0.6857 0.5061 0.9469 0.2939 0.3429 0.3429 0.5061 0.1959 0.6041 -0.1306 0.0816 -0.0327 0.1469 0.2776 0.1796 0.2612 0.0327 0.4735 0.1306 0.4735 0.2286 0 0.2122 0.4898 0.7184 0.7184 0.7184 0.2612 0 0.5388 0.6041 0.3429 0.7347 -0.0816 0.049 -0.1633 0.2776 -0.1633 0.5061 0 0.6204 -0.6041 0.5224 -0.8 -0.1306 l-0.1469 -0.5388 -0.0163 0.4735 c-0.0163 0.4408 -0.049 0.4571 -0.5714 0.3755 -0.3592 -0.049 -0.6041 -0.0163 -0.6531 0.098 -0.0327 0.1143 -0.0816 0.0653 -0.0816 -0.0816z m0.4898 -0.5714 c0 -0.0816 0.0327 -0.2939 0.0816 -0.4898 0.098 -0.5224 -0.0327 -0.4571 -0.2449 0.1143 -0.098 0.2939 -0.098 0.4898 0 0.4898 0.0816 0 0.1469 -0.049 0.1633 -0.1143z m-3.0857 -1.1102 c0 -0.4082 -0.0163 -0.7837 -0.0327 -0.849 -0.0327 -0.0816 -0.0327 -0.1959 -0.0163 -0.2612 0.0163 -0.0816 -0.049 -0.098 -0.1469 -0.0327 -0.098 0.049 -0.1306 0.1796 -0.0816 0.2612 0.049 0.0816 0.0327 0.4082 -0.0653 0.7347 -0.1143 0.4245 -0.1143 0.6531 0.0327 0.8 0.2776 0.2939 0.3265 0.1959 0.3102 -0.6531z m2.8245 -0.2776 c0 -0.5224 -0.0653 -0.6857 -0.3102 -0.7184 -0.1633 -0.0163 -0.3592 -0.1306 -0.4245 -0.2286 -0.0816 -0.1306 -0.1633 -0.1469 -0.2286 -0.0327 -0.049 0.098 0.049 0.2122 0.2286 0.2776 0.2286 0.0653 0.3592 0.2939 0.4245 0.751 0.1469 0.8327 0.3265 0.8163 0.3102 -0.049z m-1.2898 -2.6776 c-0.049 -0.1469 -0.098 -0.3592 -0.098 -0.4898 0 -0.1469 -0.0653 -0.2122 -0.1469 -0.1469 -0.0816 0.049 -0.1959 -0.049 -0.2286 -0.1959 -0.049 -0.1796 -0.0816 -0.1143 -0.098 0.1633 -0.0163 0.2776 0.049 0.4245 0.1469 0.3592 0.1469 -0.098 0.2286 0.1306 0.1796 0.4571 0 0.0653 0.0653 0.1143 0.1633 0.1143 0.098 0 0.1306 -0.1143 0.0816 -0.2612z m-1.3224 -0.3918 c0.1143 0 0.2449 -0.1469 0.2939 -0.3265 0.098 -0.3918 0.049 -0.4082 -0.3755 -0.049 -0.1796 0.1633 -0.3265 0.3918 -0.3102 0.5388 0 0.1633 0.0327 0.1796 0.098 0.049 0.0327 -0.1143 0.1796 -0.2122 0.2939 -0.2122z"/>
  <path d="M32.5878 51.2653 c0.1796 -0.9143 0.4082 -1.3388 0.2939 -0.5224 -0.0653 0.4245 -0.0163 0.7837 0.098 0.9306 0.1469 0.1796 0.1306 0.2286 -0.1469 0.1959 -0.3102 -0.0163 -0.3265 -0.098 -0.2449 -0.6041z"/>
  <path d="M30.7265 35.8204 c-0.5551 -0.1306 -1.2408 -0.3429 -1.502 -0.4735 -0.2612 -0.1306 -0.5714 -0.2449 -0.702 -0.2449 -0.1143 0 -0.6857 -0.2286 -1.2735 -0.5061 -0.5714 -0.2776 -1.1918 -0.5714 -1.3714 -0.6531 -0.3592 -0.1633 -0.5061 -0.2449 -1.9592 -1.1918 -0.8327 -0.5551 -3.8857 -3.3633 -3.4286 -3.1673 0.5224 0.2286 2.4 1.2082 3.102 1.6163 1.1918 0.702 3.3633 1.7306 3.9184 1.8776 0.2776 0.0653 0.6367 0.2122 0.8327 0.3265 0.1796 0.1306 0.751 0.3755 1.2571 0.5388 0.7184 0.2612 0.9306 0.2776 0.9306 0.1143 0 -0.1306 -0.1306 -0.2612 -0.2776 -0.3265 -0.1633 -0.049 -0.5388 -0.2449 -0.849 -0.4245 -0.5388 -0.3429 -1.3714 -0.6857 -2.4163 -0.9959 -0.2939 -0.0816 -1.0449 -0.4571 -1.6816 -0.8 -0.6204 -0.3592 -1.1755 -0.6531 -1.2245 -0.6531 -0.0653 0 -0.3755 -0.2286 -0.7184 -0.4898 -0.702 -0.5714 -2.2367 -1.2082 -2.5143 -1.0449 -0.1143 0.0653 -0.1469 0.0653 -0.0816 -0.0163 0.0816 -0.0816 -0.1633 -0.2612 -0.5061 -0.4245 -0.4245 -0.1796 -0.7184 -0.4735 -0.8816 -0.8327 -0.4245 -0.9306 -0.4898 -1.3061 -0.2612 -1.4531 0.1796 -0.1143 0.1959 -0.1959 0.0327 -0.4735 -0.3592 -0.5551 -0.2286 -0.6694 0.3265 -0.2939 0.2776 0.2122 0.5551 0.3918 0.6041 0.4245 0.0327 0.0327 -0.0163 0.1143 -0.1306 0.1796 -0.1633 0.098 -0.1633 0.1796 0.049 0.3429 0.2122 0.1796 0.2286 0.1633 0.1306 -0.098 -0.0816 -0.2286 0.0816 -0.1469 0.6204 0.2612 0.3918 0.3265 1.0122 0.7837 1.3714 1.0122 0.3592 0.2449 0.7837 0.6694 0.9469 0.9306 0.1633 0.2776 0.3755 0.4571 0.5061 0.4082 0.1143 -0.049 0.3265 0.0327 0.4735 0.1633 0.1469 0.1469 0.3102 0.2612 0.3918 0.2612 0.0653 0 0.6367 0.2612 1.2408 0.5714 0.6204 0.3102 1.1918 0.5714 1.2898 0.5714 0.098 0 0.3102 0.098 0.4408 0.2122 0.1469 0.1306 0.5224 0.3265 0.8327 0.4408 0.7184 0.2776 3.3143 1.7959 3.4612 2.0082 0.1143 0.1796 -0.1959 0.7673 -0.4082 0.7673 -0.0653 0 -0.0816 -0.0816 -0.0163 -0.1959 0.0653 -0.1143 0.049 -0.1306 -0.0653 -0.0653 -0.1143 0.0653 -0.1959 0.2286 -0.1959 0.3592 0 0.1306 -0.098 0.2286 -0.1959 0.2286 -0.1143 0.0163 0.1469 0.3429 0.6041 0.7347 0.8653 0.7837 0.849 0.8 -0.702 0.4735z"/>
  <path d="M37.2245 35.151 c0 -0.4408 -0.049 -1.1592 -0.098 -1.6163 -0.098 -0.7673 -0.0653 -0.8653 0.3592 -1.3061 0.2612 -0.2612 0.8816 -0.7837 1.3714 -1.1592 0.4898 -0.3755 1.2898 -1.0122 1.7633 -1.4204 0.8163 -0.702 0.849 -0.7347 0.5061 -0.9306 -0.1959 -0.098 -0.3102 -0.1143 -0.2612 -0.0327 0.0327 0.0653 0.0163 0.2939 -0.0653 0.4898 -0.098 0.2612 -0.2122 0.3429 -0.4082 0.2612 -0.2122 -0.0816 -0.2449 -0.049 -0.1469 0.1143 0.0816 0.1469 0.0653 0.1796 -0.049 0.098 -0.1143 -0.0653 -0.4245 0.1143 -0.7347 0.4245 -0.8327 0.8327 -2.351 1.9265 -2.4816 1.7959 -0.0816 -0.0653 -0.098 -0.0327 -0.0327 0.049 0.049 0.098 0.0327 0.2776 -0.0653 0.4082 -0.1143 0.1959 -0.1469 0.1959 -0.1469 0.0163 0 -0.1796 -0.049 -0.1796 -0.2449 -0.0163 -0.1306 0.1143 -0.2122 0.2612 -0.1633 0.3265 0.049 0.0816 -0.0653 0.098 -0.2286 0.049 -0.5061 -0.1306 -0.098 -0.5878 1.7469 -1.9755 1.9102 -1.4204 2.5633 -1.9755 2.5633 -2.1714 0 -0.1306 0.0816 -0.2286 0.1633 -0.2286 0.098 0 0.5551 -0.4082 1.0286 -0.898 0.4571 -0.4898 1.0286 -1.0939 1.2735 -1.3224 0.2776 -0.2776 0.3918 -0.5224 0.3102 -0.6531 -0.0816 -0.1306 -0.0816 -0.1796 0 -0.1143 0.0653 0.0653 0.4735 -0.3429 0.898 -0.9143 1.0449 -1.4041 3.4939 -3.7551 3.5592 -3.4286 0.0327 0.1306 -0.1143 0.4571 -0.3265 0.7184 -2.1061 2.5959 -2.9714 3.6245 -3.3796 4.0163 -0.2612 0.2449 -0.5224 0.6204 -0.5878 0.8327 -0.049 0.2122 -0.1796 0.3755 -0.3102 0.3755 -0.1143 0 -0.3102 0.1796 -0.4245 0.4082 -0.1143 0.2122 -0.2612 0.3592 -0.3265 0.3265 -0.1143 -0.0653 -0.9796 0.8 -0.9796 0.9796 0 0.1633 0.3265 0.0653 0.6367 -0.1959 0.1796 -0.1469 0.2776 -0.3429 0.2286 -0.4245 -0.049 -0.098 -0.0327 -0.1143 0.0653 -0.0653 0.2612 0.1633 2.1714 -1.8449 3.3959 -3.5592 0.3102 -0.4571 0.6694 -0.9633 0.8163 -1.1429 0.1469 -0.1796 0.4082 -0.5224 0.5878 -0.7673 0.1796 -0.2612 0.3918 -0.4571 0.4571 -0.4571 0.1143 0 -0.1143 2.0245 -0.4571 3.8204 -0.2612 1.4041 -1.8449 4.4898 -2.8571 5.5837 -1.2082 1.3061 -2.6122 2.3673 -4.1469 3.1347 -0.7184 0.3592 -1.5347 0.8 -1.8122 0.9959 -0.7837 0.5551 -0.9959 0.4571 -0.9959 -0.4245z"/>
  <path d="M32.0816 33.3061 c0.049 -0.0816 -0.1143 -0.2449 -0.3592 -0.3592 -0.2449 -0.1143 -0.751 -0.4245 -1.1102 -0.702 -0.5551 -0.4408 -2.8571 -1.6163 -5.3878 -2.7918 -0.3592 -0.1633 -1.0612 -0.6367 -1.551 -1.0449 -1.1265 -0.9306 -1.8939 -1.4694 -2.1061 -1.4694 -0.098 0 -0.2286 -0.098 -0.2939 -0.2122 -0.0653 -0.098 -0.3918 -0.3918 -0.702 -0.6204 -1.4041 -1.0612 -2.1878 -2.0245 -2.2694 -2.8408 -0.0327 -0.3592 -0.049 -1.7796 -0.049 -3.1673 0.0163 -2.302 0.0327 -2.5633 0.3592 -2.9878 0.2122 -0.2776 0.3102 -0.5878 0.2449 -0.7837 -0.049 -0.1633 -0.0163 -0.3429 0.0816 -0.4082 0.098 -0.0653 0.1633 0.0653 0.1633 0.2939 0 0.5878 1.1265 2.0571 2.0898 2.7265 0.8816 0.6041 2.0082 1.0122 2.8898 1.0776 1.0612 0.0816 4 -1.1755 3.7388 -1.5837 -0.049 -0.0816 0.0163 -0.098 0.1469 -0.0653 0.2776 0.1143 1.698 -1.1265 1.8286 -1.6 0.0653 -0.1959 0.2449 -0.6531 0.3918 -1.0122 0.6367 -1.4041 0.5061 -3.2163 -0.3102 -4.8 -0.3755 -0.7184 -1.7306 -2.1388 -2.0571 -2.1388 -0.1306 0 -0.3592 -0.1469 -0.5061 -0.3265 -0.1633 -0.1796 -0.5388 -0.4082 -0.8653 -0.5061 -0.3102 -0.1143 -0.7184 -0.2939 -0.8816 -0.4082 -0.2776 -0.1959 -0.2286 -0.2449 0.6367 -0.6204 0.5224 -0.2449 1.0286 -0.4245 1.1265 -0.4245 0.1143 0 0.2612 -0.0653 0.3429 -0.1469 0.098 -0.098 1.1265 -0.3918 2.2857 -0.6857 2.0082 -0.5061 2.2857 -0.5388 5.1429 -0.5388 2.5796 0 3.2653 0.049 4.6531 0.3755 0.898 0.1959 1.9265 0.4245 2.2857 0.4898 0.3592 0.0816 0.8816 0.2612 1.1429 0.4245 1.1429 0.6694 2.9061 3.8204 1.9265 3.4449 -0.5061 -0.1959 -2.6122 -0.3102 -3.6898 -0.1959 -1.0286 0.1143 -1.1102 0.1633 -2.1714 1.1592 -0.6204 0.5878 -1.1918 0.9959 -1.3224 0.9469 -0.1469 -0.049 -0.3592 0.2286 -0.6367 0.849 -0.3592 0.8327 -0.4082 1.2082 -0.4408 2.9224 -0.0163 1.0939 0.0163 2.302 0.0816 2.6939 0.1633 0.9143 0.9469 2.1061 1.7796 2.6612 0.5878 0.3918 2.1388 0.9469 3.3306 1.1755 0.9143 0.1796 2.7429 0.1143 2.9551 -0.1143 0.0653 -0.0653 0.2286 -0.1143 0.3755 -0.1143 0.1469 0 -0.0327 0.2939 -0.5061 0.7837 -0.6694 0.702 -2.0898 2.5306 -2.0898 2.7102 0 0.0816 -1.3878 1.6163 -2.2204 2.449 -0.849 0.849 -1.3388 1.2571 -2.0898 1.7633 -0.3265 0.2286 -0.9469 0.7347 -1.3714 1.1265 -1.8939 1.7633 -2.4327 2.1061 -3.7224 2.4327 -1.4694 0.3755 -1.4204 0.3755 -1.2898 0.1633z m0.702 -5.3224 c1.2898 -0.1143 1.3551 -0.4245 0.0816 -0.3755 -1.7143 0.0816 -2.1388 0.0163 -2.2531 -0.3265 -0.2449 -0.8 -1.3714 -0.4571 -1.1755 0.3429 0.098 0.3592 0.1959 0.3918 1.2082 0.4245 0.6041 0.0163 1.5673 -0.0163 2.1388 -0.0653z m3.7878 -12.098 c-0.0163 -0.5388 -1.2735 -1.1592 -2.8408 -1.3878 -1.2082 -0.1633 -1.4531 -0.1633 -2.1061 0.098 -0.849 0.3265 -1.1755 0.6367 -1.0286 1.0122 0.0816 0.2286 0.1633 0.2122 0.6531 -0.0816 1.0612 -0.6531 2.9714 -0.5878 4.4571 0.1469 0.6857 0.3429 0.8653 0.3918 0.8653 0.2122z"/>
  <path d="M18.5633 25.7306 c-0.0653 -0.2449 -0.098 -0.5061 -0.0327 -0.5551 0.1633 -0.1633 0.2612 0.098 0.2122 0.5714 l-0.049 0.4571 -0.1306 -0.4735z"/>
  <path d="M41.6163 21.4041 c-0.9633 -0.1959 -2.4816 -0.849 -2.9714 -1.3061 -0.2449 -0.2286 -0.6367 -0.8163 -0.8816 -1.3224 -0.3918 -0.8327 -0.4245 -1.0612 -0.4245 -3.0367 -0.0163 -2.3837 0.0653 -2.6286 1.1429 -3.5592 0.2939 -0.2612 0.5388 -0.5714 0.5388 -0.6857 0 -0.1143 0.098 -0.1796 0.2286 -0.1306 0.1306 0.049 0.3102 -0.049 0.3918 -0.2122 0.098 -0.1633 0.5551 -0.4408 1.0122 -0.6041 0.702 -0.2449 1.1592 -0.2939 2.5959 -0.2286 1.0612 0.049 1.8939 0.1796 2.1061 0.3102 0.4735 0.2939 1.3061 1.7633 1.6 2.8245 0.1306 0.4571 0.3102 1.9592 0.3918 3.3306 l0.1633 2.498 -0.4245 0.5551 c-0.2286 0.2939 -0.5224 0.5878 -0.6531 0.6367 -0.1143 0.049 -0.2286 0.1633 -0.2286 0.2776 0 0.098 0.1143 0.1306 0.2612 0.0816 0.1469 -0.049 0.1959 -0.0327 0.1469 0.0816 -0.0653 0.098 -0.2286 0.1306 -0.3592 0.0816 -0.1306 -0.049 -0.6694 0.049 -1.1918 0.2286 -0.9796 0.3265 -2.302 0.3918 -3.4449 0.1796z m-1.3061 -4.898 c0.1796 -0.3265 -0.0327 -1.4041 -0.3265 -1.5837 -0.2939 -0.1633 -0.7673 0.4245 -0.849 1.0449 -0.0327 0.3265 -0.0327 0.6531 0 0.7347 0.1469 0.2449 1.0122 0.1143 1.1755 -0.1959z m3.7714 -3.4449 c0 -0.0816 -0.2776 -0.2776 -0.6041 -0.4408 -0.3429 -0.1469 -0.6694 -0.3102 -0.7347 -0.3429 -0.0816 -0.0327 -0.1306 0.098 -0.1306 0.2939 0 0.2122 0.0816 0.3265 0.1959 0.2939 0.1143 -0.049 0.3918 0.0163 0.6204 0.1469 0.4898 0.2449 0.6531 0.2612 0.6531 0.049z"/>
  <path d="M22.5469 18.9388 c-1.3878 -0.6367 -2.2531 -1.4204 -2.6122 -2.3347 -0.5714 -1.5673 -0.5714 -2.1714 0.0327 -3.5102 0.8 -1.7796 3.3796 -4.8 4.3102 -5.0286 0.8327 -0.2122 3.0367 0.751 4.2449 1.8612 1.0776 0.9959 1.6653 2.9061 1.3714 4.4735 -0.1796 1.0449 -0.8327 2.4327 -1.3714 2.9714 -0.5551 0.5388 -1.9102 1.3551 -2.7265 1.6327 -1.0122 0.3592 -2.3673 0.3265 -3.249 -0.0653z m4.5224 -2.6122 c0.2449 -0.4082 -0.0816 -1.5184 -0.4735 -1.6 -0.3918 -0.0653 -0.8816 1.4694 -0.6041 1.9102 0.1469 0.2449 0.2612 0.2776 0.5388 0.1469 0.1959 -0.0816 0.4245 -0.2939 0.5388 -0.4571z m-2.5796 -4.2776 c0 -0.2939 -0.3918 -0.2939 -0.7184 0.0163 -0.1959 0.1959 -0.4571 0.3429 -0.5551 0.3429 -0.2122 0 -0.2612 0.2122 -0.098 0.3755 0.1143 0.1143 1.3714 -0.5551 1.3714 -0.7347z"/>
  <path d="M47.9673 16.0653 c-0.0653 -1.0939 -0.2286 -2.0082 -0.5061 -2.8408 -0.2286 -0.6694 -0.3918 -1.2408 -0.3592 -1.2735 0.0163 -0.0327 0.3265 0.3429 0.6694 0.8163 l0.6367 0.849 0 1.7306 c0 2.3837 -0.3265 2.9061 -0.4408 0.7184z"/>
  <path d="M19.7551 11.9673 c0 -0.0816 0.2122 -0.5388 0.4571 -1.0286 0.2939 -0.5878 0.5714 -0.9143 0.7837 -0.9469 0.1959 -0.0327 0.4408 -0.2612 0.5714 -0.5551 0.1306 -0.2776 0.5061 -0.6857 0.849 -0.898 l0.6204 -0.3918 -0.2776 0.4245 c-0.1469 0.2286 -0.3102 0.4082 -0.3755 0.4082 -0.1633 0 -1.8122 2.0735 -1.8122 2.2857 0 0.0816 -0.0653 0.1633 -0.1469 0.1633 -0.0816 0 -0.2122 0.1469 -0.2612 0.3265 -0.098 0.3102 -0.4082 0.4735 -0.4082 0.2122z"/>
  <path d="M32.9143 45.6 c-0.0653 -0.1469 -0.049 -0.3265 0.0327 -0.4082 0.098 -0.098 0.1633 0.0163 0.1633 0.2612 0 0.4898 -0.049 0.5224 -0.1959 0.1469z"/>
</g>
 <g id="layer103" fill="#508a95" stroke="none">
  <path d="M28.1633 63.7388 c-7.4776 -1.0122 -13.6327 -4 -18.7592 -9.1429 -11.3469 -11.3469 -12.5551 -29.0449 -2.8408 -41.9755 6.5306 -8.7184 17.8449 -13.6327 28.6694 -12.4408 7.5102 0.8163 14.1551 3.9837 19.4286 9.2898 6.8898 6.9061 10.3184 16.8 9.0939 26.2367 -1.6163 12.3592 -9.7796 22.4816 -21.3388 26.4816 -4.6041 1.5837 -9.8122 2.1551 -14.2531 1.551z m12.2449 -5.3224 c0.5878 -0.3102 1.2082 -0.9796 1.3061 -1.4531 0.1306 -0.5878 -0.0327 -0.8816 -0.3265 -0.6367 -0.1633 0.1306 -0.3102 0.049 -0.5878 -0.3592 -0.2122 -0.2939 -0.8816 -1.0286 -1.502 -1.6327 -1.8776 -1.8612 -2.1551 -3.102 -2.0082 -8.7837 0.049 -2.0245 0.0327 -4.6367 -0.049 -5.8122 -0.1796 -2.8245 -0.1469 -3.0041 0.6367 -3.4449 l0.6367 -0.3429 0.098 0.8653 c0.0653 0.4898 0.0163 2.1551 -0.098 3.7061 -0.2286 2.8898 -0.2939 7.5102 -0.1306 10.2041 0.049 0.8327 0.0163 1.5837 -0.0653 1.6653 -0.1959 0.1959 0.0163 0.8327 0.2939 0.8327 0.3755 0 2.5959 1.4041 4.1959 2.6449 0.5388 0.4245 1.7633 0.8163 1.7633 0.5714 0 -0.049 -0.3102 -0.2449 -0.6857 -0.4082 -0.3918 -0.1633 -1.1755 -0.751 -1.7633 -1.3061 -0.5878 -0.5551 -1.1102 -1.0122 -1.1755 -1.0122 -0.2939 0 -1.502 -1.2082 -1.5347 -1.5184 -0.0163 -0.1959 -0.1143 -1.1592 -0.2286 -2.1551 -0.1796 -1.7469 -0.1143 -12 0.098 -13.8286 0.098 -0.7673 0.098 -0.7673 1.2245 -1.2898 0.6204 -0.2939 1.1265 -0.5878 1.1265 -0.6367 0 -0.0653 0.1796 -0.1959 0.3918 -0.2939 0.2286 -0.098 1.1592 -0.9143 2.1061 -1.8122 1.7796 -1.7143 2.351 -2.5796 3.151 -4.7347 0.4245 -1.1429 1.1755 -5.7469 1.2898 -7.8531 0.0327 -0.6694 0.1469 -1.4367 0.2612 -1.7143 0.1143 -0.2776 0.1959 -1.2898 0.2122 -2.3673 0.0163 -1.6327 -0.0327 -1.9592 -0.3429 -2.5306 -0.3429 -0.6367 -2.0898 -2.5306 -2.3347 -2.5306 -0.0653 0 -0.1959 -0.3102 -0.2939 -0.702 -0.1633 -0.6204 -1.0122 -2.1551 -1.6653 -3.0041 -0.5551 -0.702 -1.4041 -1.1755 -2.449 -1.3551 -0.5878 -0.098 -1.5347 -0.2939 -2.1224 -0.4245 -4.4408 -1.0776 -10.1714 -0.3918 -14.4 1.7306 -0.6857 0.3429 -1.5184 0.6694 -1.8776 0.7347 -0.3429 0.049 -0.849 0.2286 -1.1429 0.3755 -0.6857 0.3755 -2.1224 1.7469 -2.4163 2.3347 -0.1469 0.2612 -0.3102 0.4735 -0.3918 0.4735 -0.2449 0 -0.5061 0.8653 -0.6531 2.2857 -0.0816 0.8163 -0.3755 2.0408 -0.702 2.9388 -0.6204 1.7306 -0.6857 2.449 -0.6531 5.9592 0.0653 4.9143 0.0816 5.1429 0.5878 6.1061 0.7347 1.4204 4.2939 4.8327 5.9265 5.698 l0.3592 0.1959 -0.0816 5.8449 c-0.049 3.2 -0.1143 6.0571 -0.1469 6.3184 -0.0327 0.2776 -0.1469 1.8449 -0.2612 3.5102 l-0.1959 3.0204 -1.6653 1.6327 c-1.649 1.6 -2.3837 2.5633 -2.1551 2.8082 0.0653 0.0653 0.8327 -0.6041 1.698 -1.4857 0.8653 -0.8653 1.8939 -1.7796 2.2857 -2.0082 0.6367 -0.3755 0.702 -0.4571 0.7184 -1.0776 0.0653 -3.0041 0.1469 -4.5388 0.3102 -6.1551 0.098 -1.0286 0.1796 -4 0.1796 -6.6122 -0.0163 -2.5959 0.049 -4.8327 0.1306 -4.9469 0.098 -0.1633 0.4898 -0.049 1.7959 0.5224 0.898 0.4082 1.7306 0.751 1.8286 0.751 0.098 0 0.4082 0.098 0.6857 0.2286 0.7837 0.3592 2.5796 0.751 3.3796 0.751 0.6041 0 0.7837 0.0816 1.3551 0.6694 l0.6531 0.6694 -0.4245 0.3592 c-0.3592 0.3102 -0.4082 0.4571 -0.3429 0.9469 0.0653 0.3265 -0.0163 0.9633 -0.1633 1.4857 -0.1469 0.4898 -0.2612 1.0612 -0.2612 1.2735 0 0.6367 -1.1102 2.8735 -2.1551 4.3918 -1.551 2.2204 -1.8776 2.9878 -1.4204 3.2816 0.4408 0.2776 0.8163 0.1469 1.5184 -0.5061 l0.7184 -0.6694 -0.3918 1.5184 c-0.2939 1.1592 -0.3918 1.9265 -0.3918 3.3469 0 1.7143 0.0163 1.8449 0.3102 1.8449 0.1796 0 0.3755 0.0816 0.4245 0.1633 0.1306 0.2122 1.7796 1.3061 2.3673 1.5673 0.1306 0.0653 0.3918 0.2449 0.5714 0.3918 0.3265 0.2776 1.3714 0.6694 2.6122 0.9633 0.7184 0.1796 1.9265 0.0816 2.449 -0.1796z"/>
  <path d="M39.0694 56.7184 c-0.049 -0.1306 -0.0163 -0.3265 0.098 -0.4408 0.1306 -0.1306 0.1796 -0.0653 0.1796 0.2612 0 0.4898 -0.1143 0.5714 -0.2776 0.1796z"/>
  <path d="M36.4735 55.8041 c-0.1306 -0.2612 -0.2122 -0.5878 -0.1633 -0.7184 0.049 -0.1306 0.0163 -0.2286 -0.0816 -0.2286 -0.2286 0 -0.0163 -0.9959 0.2776 -1.3061 0.1959 -0.1959 0.2286 -0.1959 0.2286 0.049 0 0.1469 -0.0653 0.2776 -0.1633 0.2776 -0.0816 0 -0.1633 0.1143 -0.1633 0.2612 0 0.1306 0.0653 0.2122 0.1469 0.1633 0.0816 -0.049 0.1959 0.0163 0.2449 0.1633 0.0653 0.1633 0.0327 0.2122 -0.098 0.1306 -0.1306 -0.0816 -0.1469 0.0163 -0.0653 0.3592 0.0653 0.2612 0.1959 0.5061 0.2776 0.5224 0.0816 0.0327 0.1469 0.1306 0.1469 0.2122 0 0.098 -0.0653 0.1143 -0.1633 0.0653 -0.0816 -0.049 -0.1633 0 -0.1633 0.1306 0 0.1633 0.1143 0.2122 0.3265 0.1633 0.1796 -0.049 0.3265 -0.0163 0.3265 0.0653 0 0.0816 -0.1469 0.1469 -0.3265 0.1633 -0.2122 0.0163 -0.4245 -0.1469 -0.5878 -0.4735z"/>
  <path d="M38.1551 56.098 c-0.1633 -0.1306 -0.2612 -0.3265 -0.2449 -0.4408 0.0327 -0.1306 -0.049 -0.2122 -0.1469 -0.1796 -0.1143 0.0163 -0.2122 -0.049 -0.2122 -0.1469 0 -0.2286 0.4898 -0.702 0.7837 -0.7347 0.1796 -0.0327 0.1959 0 0.049 0.1469 -0.098 0.098 -0.1796 0.4082 -0.1796 0.6857 0 0.3755 0.049 0.4245 0.1633 0.2449 0.1306 -0.1959 0.1633 -0.1469 0.1633 0.2122 0 0.5061 0.0163 0.5061 -0.3755 0.2122z"/>
  <path d="M35.0367 54.7265 c0.3265 -0.2122 0.4408 -0.849 0.1959 -1.1265 -0.1143 -0.1469 -0.1306 -0.2286 -0.0327 -0.1633 0.1143 0.0653 0.2286 -0.049 0.2612 -0.2776 0.0816 -0.3918 0.0653 -0.3918 -0.2776 -0.1306 -0.2776 0.2122 -0.3429 0.4082 -0.3102 0.8816 0.0163 0.3592 -0.0327 0.5878 -0.1143 0.5388 -0.0816 -0.0653 -0.1469 -0.2449 -0.1469 -0.4245 0 -0.2286 -0.0653 -0.2939 -0.1959 -0.2122 -0.1469 0.0816 -0.1469 0.0327 0.0163 -0.1469 0.1143 -0.1469 0.1633 -0.2776 0.098 -0.2776 -0.0816 0 0.1306 -0.2776 0.4735 -0.6041 0.4898 -0.4898 0.6367 -0.5714 0.751 -0.3755 0.0816 0.1306 0.0816 0.3265 0.0163 0.4571 -0.0816 0.1469 -0.0327 0.4408 0.1143 0.7347 0.2449 0.5061 0.1143 1.0122 -0.2612 1.0122 -0.098 0 -0.2286 0.049 -0.2939 0.1306 -0.0653 0.0653 -0.1959 0.1143 -0.2939 0.1143 -0.1306 0 -0.1306 -0.049 0 -0.1306z"/>
  <path d="M36 53.3714 c-0.0653 -0.1796 -0.0653 -0.3755 -0.0163 -0.4245 0.049 -0.0653 0.098 0.0163 0.098 0.1796 0 0.1469 0.0816 0.2286 0.1633 0.1796 0.098 -0.049 0.1633 -0.0327 0.1633 0.0653 0 0.3265 -0.3102 0.3429 -0.4082 0z"/>
  <path d="M33.9592 52.751 c-0.2449 -0.4571 -0.1959 -0.6694 0.1306 -0.6531 0.1633 0 0.1959 0.049 0.0816 0.098 -0.1143 0.0327 -0.2122 0.1469 -0.2122 0.2286 0 0.098 0.0653 0.1143 0.1633 0.0653 0.098 -0.0653 0.1143 0.0163 0.049 0.1796 -0.0816 0.2122 -0.049 0.2449 0.1143 0.1469 0.1469 -0.0816 0.1796 -0.0653 0.098 0.049 -0.1633 0.2612 -0.2286 0.2449 -0.4245 -0.1143z"/>
  <path d="M35.1347 51.7061 c0.049 -0.7837 0.1959 -0.8163 0.3755 -0.098 0.0653 0.2776 0.0163 0.4898 -0.1633 0.6367 -0.2286 0.1796 -0.2449 0.1306 -0.2122 -0.5388z"/>
  <path d="M33.4531 51.7714 c0.2286 -0.4082 0.3265 -0.4408 0.2776 -0.0653 -0.0327 0.1469 -0.1306 0.3102 -0.2449 0.3429 -0.1633 0.049 -0.1633 0 -0.0327 -0.2776z"/>
  <path d="M34.2204 51.6408 c-0.0653 -0.1469 -0.0327 -0.3429 0.0653 -0.4408 0.1143 -0.1143 0.1633 -0.0327 0.1633 0.2776 0 0.5061 -0.0816 0.5551 -0.2286 0.1633z"/>
  <path d="M36.2612 50.498 c-0.0163 -0.4245 0.0327 -0.6857 0.1143 -0.6367 0.2286 0.1469 0.3265 1.2245 0.1143 1.3061 -0.1143 0.0327 -0.1959 -0.2122 -0.2286 -0.6694z"/>
  <path d="M33.5837 50.6775 c-0.1469 -0.1633 -0.1469 -0.3918 0.0163 -0.3755 0.3102 0.049 0.4082 -0.0327 0.1959 -0.1796 -0.1959 -0.1143 -0.2122 -0.2122 -0.0653 -0.4571 0.1469 -0.2286 0.1469 -0.4245 -0.0163 -0.7837 l-0.2122 -0.4898 0.5551 0.2449 c0.5551 0.2449 0.7347 0.5061 0.3592 0.5061 -0.1633 0 -0.1469 0.049 0.0163 0.1469 0.1143 0.0816 0.1633 0.2286 0.098 0.3429 -0.098 0.1469 -0.1469 0.1469 -0.2612 -0.0163 -0.098 -0.1469 -0.1469 -0.0163 -0.1469 0.3918 0 0.3429 -0.0653 0.5878 -0.1469 0.5388 -0.0816 -0.0653 -0.1796 -0.0163 -0.2122 0.0816 -0.0327 0.0816 -0.1143 0.1143 -0.1796 0.049z"/>
  <path d="M34.2857 50.3837 c0 -0.2612 0.4408 -0.4735 0.5714 -0.2612 0.049 0.0816 -0.0653 0.2286 -0.2449 0.3265 -0.2612 0.1306 -0.3265 0.1306 -0.3265 -0.0653z"/>
  <path d="M35.8857 49.0775 c-0.3592 -0.1306 -0.4571 -0.2612 -0.4571 -0.6531 0 -0.4571 -0.0163 -0.4735 -0.2449 -0.1633 -0.1306 0.1633 -0.2449 0.2449 -0.2449 0.1469 0 -0.0816 -0.0653 -0.0653 -0.1469 0.0653 -0.098 0.1469 -0.2286 0.1633 -0.3592 0.0816 -0.1306 -0.0816 -0.2939 -0.1469 -0.3755 -0.1469 -0.0816 0 -0.2286 -0.1306 -0.3102 -0.2776 -0.1306 -0.2122 -0.0327 -0.702 0.4245 -2.0571 0.3265 -0.9796 0.6041 -1.9102 0.6041 -2.0571 0 -0.1796 0.0816 -0.2286 0.1959 -0.1633 0.1306 0.0816 0.1469 0.0327 0.0653 -0.1796 -0.049 -0.1633 0 -0.4408 0.1306 -0.6367 0.1306 -0.2122 0.2612 -1.0776 0.3429 -2.1714 0.098 -1.5837 0.1469 -1.8122 0.3918 -1.7469 0.1469 0.049 0.0816 -0.0327 -0.1469 -0.1633 -0.2286 -0.1306 -0.3265 -0.2612 -0.2449 -0.2612 0.098 0 0.3102 -0.049 0.4898 -0.098 0.2612 -0.0653 0.3429 0 0.3755 0.3265 0.0163 0.2286 -0.049 0.4571 -0.1306 0.5061 -0.098 0.049 -0.1633 0.2612 -0.1469 0.4571 0 0.3429 0.0163 0.3429 0.1306 0.049 0.1143 -0.3102 0.1306 -0.3102 0.2122 0.0163 0.0653 0.2286 0 0.3918 -0.1633 0.4571 -0.2122 0.0816 -0.2122 0.1143 0.049 0.2939 0.2612 0.1959 0.2776 0.5061 0.1469 4.3755 l-0.1469 4.1633 -0.4408 -0.1633z m-1.698 -1.7796 c0.0653 -0.3102 0.049 -0.4245 -0.0653 -0.3592 -0.0816 0.049 -0.1633 0.2939 -0.1633 0.5224 0 0.5224 0.0816 0.4571 0.2286 -0.1633z m0.7347 -1.3224 c0 -0.098 -0.0816 -0.3265 -0.1633 -0.5061 -0.1306 -0.2776 -0.1306 -0.2612 -0.0653 0.1143 0.049 0.2449 0.0163 0.4898 -0.0816 0.5388 -0.0816 0.049 -0.1633 0.2286 -0.1633 0.3755 0.0163 0.2449 0.0327 0.2449 0.2449 -0.0327 0.1306 -0.1796 0.2449 -0.4082 0.2286 -0.4898z m1.0122 -1.2898 c-0.1306 -0.1306 -0.1796 -0.1143 -0.1796 0.0653 0 0.3265 0.2122 0.5551 0.2939 0.3102 0.049 -0.1143 -0.0163 -0.2776 -0.1143 -0.3755z"/>
  <path d="M32.6204 47.298 c0.2449 -0.4898 0.4735 -0.8816 0.4898 -0.849 0.1306 0.1306 -0.3265 1.2082 -0.6204 1.4694 -0.2612 0.2449 -0.2449 0.1306 0.1306 -0.6204z"/>
  <path d="M35.3306 37.9265 c-0.2612 -0.849 -0.4571 -1.0776 -1.1265 -1.3714 -0.4082 -0.1796 -0.7347 -0.3918 -0.7347 -0.4571 0 -0.0816 -0.2286 -0.2286 -0.4898 -0.3429 -0.2776 -0.1143 -0.6041 -0.3592 -0.751 -0.5551 -0.1306 -0.1796 -0.2776 -0.3265 -0.3102 -0.2939 -0.2776 0.1306 -0.2286 -0.0163 0.098 -0.2612 0.2449 -0.2122 0.3102 -0.3429 0.1796 -0.4245 -0.1143 -0.0653 -0.1959 -0.0327 -0.1959 0.049 0 0.098 -0.0816 0.1796 -0.1796 0.1796 -0.1306 0 -0.1306 -0.0816 0.0163 -0.2449 0.2612 -0.3102 0.8816 -0.3265 0.7673 -0.0327 -0.1143 0.2939 0.2449 0.2939 0.5061 0 0.1633 -0.1633 0.1469 -0.2122 -0.0816 -0.2122 -0.2122 0 -0.1469 -0.0816 0.1796 -0.2449 0.5224 -0.2776 1.0776 -0.3265 1.0776 -0.0816 0 0.1633 -0.2449 0.2286 -0.5551 0.1796 -0.0816 -0.0163 -0.0653 0.0816 0.049 0.2122 0.1143 0.1469 0.3755 0.2286 0.5714 0.1959 0.1796 -0.049 0.4571 -0.0816 0.6204 -0.0816 0.1796 -0.0163 0.2449 -0.1143 0.1633 -0.3755 -0.049 -0.2286 -0.0327 -0.3102 0.098 -0.2286 0.1306 0.0653 0.1959 0 0.1959 -0.1633 0 -0.2612 0.0163 -0.2612 0.2286 0.0163 0.1306 0.1796 0.1959 0.3918 0.1469 0.4735 -0.049 0.0816 0 0.098 0.1306 0.0653 0.1306 -0.049 0.2122 -0.1796 0.1796 -0.2939 -0.0163 -0.098 0.049 -0.1633 0.1633 -0.1306 0.2939 0.098 0.3918 0.7184 0.3265 1.8939 -0.049 0.8327 -0.1143 1.0122 -0.2939 0.9469 -0.1469 -0.049 -0.1959 -0.0163 -0.1469 0.0653 0.049 0.098 0.0163 0.1633 -0.0816 0.1633 -0.098 0 -0.1306 0.1633 -0.0653 0.4082 0.0816 0.3102 0.0327 0.4082 -0.1633 0.4082 -0.1469 0 -0.2612 -0.0816 -0.2612 -0.1959 0 -0.098 -0.049 -0.1306 -0.098 -0.0816 -0.0653 0.0653 -0.0163 0.2122 0.098 0.3592 0.1633 0.1959 0.1633 0.2449 0 0.2449 -0.1633 0 -0.1633 0.049 0 0.2449 0.1469 0.1796 0.1469 0.2449 0.0163 0.2449 -0.098 0 -0.2286 -0.1306 -0.2776 -0.2776z m-1.9429 -2.6776 c-0.1143 -0.1633 -0.5714 -0.0163 -0.5714 0.1796 0 0.0816 0.1469 0.098 0.3265 0.049 0.1796 -0.049 0.2776 -0.1469 0.2449 -0.2286z m2.8571 -0.0163 c0 -0.2612 -0.049 -0.3102 -0.1796 -0.1796 -0.098 0.098 -0.1306 0.2612 -0.0816 0.3592 0.1796 0.2776 0.2612 0.2122 0.2612 -0.1796z m-2.6122 -0.2939 c-0.1959 -0.3755 -0.4245 -0.4245 -0.5878 -0.1143 -0.0653 0.098 -0.0653 0.1469 0.0163 0.0816 0.0653 -0.0653 0.2286 -0.0163 0.3592 0.1143 0.3265 0.3429 0.4245 0.3102 0.2122 -0.0816z"/>
  <path d="M30.4 35.6571 c-0.4571 -0.098 -0.9306 -0.2612 -1.0449 -0.3429 -0.1143 -0.098 -0.4571 -0.2122 -0.751 -0.2612 -0.702 -0.1469 -3.298 -1.3878 -3.298 -1.5837 0 -0.098 -0.0816 -0.1633 -0.1959 -0.1633 -0.2612 0 -2.2204 -1.2898 -2.4653 -1.6163 -0.1143 -0.1469 -0.5878 -0.5878 -1.0449 -0.9796 -0.4735 -0.3918 -0.8653 -0.7837 -0.8653 -0.849 0 -0.1469 1.5673 0.5878 1.9592 0.9143 0.3918 0.3265 3.5755 1.9429 4.5714 2.3184 2.4816 0.9306 3.151 1.2571 3.2163 1.5347 0.049 0.1796 0.1796 0.3102 0.2776 0.3102 0.1143 0 0.4082 0.2122 0.6694 0.4735 0.5224 0.5551 0.4245 0.5878 -1.0286 0.2449z"/>
  <path d="M37.1755 34.2531 l-0.0816 -1.5184 0.7184 -0.6857 c0.3918 -0.3755 0.9796 -0.8653 1.3224 -1.0939 0.3429 -0.2122 0.9143 -0.6694 1.2571 -0.9796 0.3592 -0.3265 0.7184 -0.5878 0.7837 -0.5878 0.0816 0 0.098 -0.0653 0.049 -0.1633 -0.049 -0.0816 -0.0327 -0.1633 0.0327 -0.1633 0.1306 0 1.6 -1.2245 1.8776 -1.551 0.0653 -0.0816 0.4245 -0.4898 0.8 -0.898 0.6367 -0.702 1.7633 -2.1061 2.2694 -2.8408 0.5388 -0.8 1.1918 -1.5837 1.2408 -1.5184 0.098 0.0816 -0.3755 3.2 -0.6204 4.1796 -0.1796 0.702 -0.6041 1.7306 -0.9633 2.302 -0.0816 0.1306 -0.2939 0.5551 -0.4735 0.9306 -0.4245 0.8653 -1.7306 2.302 -3.102 3.3959 -1.0449 0.8327 -1.2898 0.9796 -3.1347 1.8939 -0.5061 0.2449 -0.9633 0.5388 -1.0286 0.6204 -0.049 0.098 -0.2776 0.1796 -0.4735 0.1796 -0.3755 0 -0.3918 -0.0653 -0.4735 -1.502z"/>
  <path d="M30.7429 33.9918 c-0.098 -0.0653 -0.1633 -0.3265 -0.1469 -0.5714 0.0327 -0.2449 0 -0.4408 -0.0816 -0.4408 -0.0653 0 -0.2286 -0.049 -0.3755 -0.098 -0.1796 -0.0653 -0.2612 -0.0163 -0.2612 0.1633 0 0.1469 -0.098 0.2612 -0.2286 0.2612 -0.2612 0 -1.0776 -0.7347 -1.0776 -0.9796 0 -0.0816 -0.1143 -0.1633 -0.2449 -0.1633 -0.1469 0 -0.1959 0.098 -0.1469 0.2449 0.0653 0.1306 0.1633 0.1959 0.2449 0.1469 0.0816 -0.049 0.1469 0 0.1469 0.0816 0 0.2286 -0.0163 0.2286 -0.7184 -0.0653 -0.6041 -0.2612 -0.7347 -0.4571 -0.3918 -0.6694 0.098 -0.0653 0.1306 -0.049 0.0816 0.049 -0.0653 0.098 -0.0163 0.2122 0.1143 0.2612 0.1306 0.049 0.2776 -0.0163 0.3265 -0.1469 0.049 -0.1306 0.0327 -0.2286 -0.049 -0.2286 -0.0653 0 -0.1306 -0.098 -0.1306 -0.2286 0 -0.2776 0.4245 -0.1143 1.5837 0.5878 0.4082 0.2449 0.9796 0.5551 1.2735 0.6857 0.2776 0.1306 0.5224 0.3265 0.5224 0.4082 0 0.098 0.1143 0.1796 0.2776 0.1796 0.2122 0 0.1796 0.0653 -0.1143 0.3265 -0.2122 0.1796 -0.3755 0.3265 -0.3918 0.3265 -0.0163 0 -0.098 -0.0653 -0.2122 -0.1306z"/>
  <path d="M32 33.0612 c-0.1143 -0.1306 -0.2939 -0.2449 -0.3918 -0.2449 -0.1143 0 -0.4571 -0.2286 -0.751 -0.4898 -0.4735 -0.4245 -3.0041 -1.7959 -3.3143 -1.7959 -0.0653 0 -0.4082 -0.1796 -0.7673 -0.4082 -0.3592 -0.2286 -0.9796 -0.5388 -1.3878 -0.702 -0.3918 -0.1469 -1.1918 -0.6857 -1.7959 -1.1755 -0.5878 -0.4898 -1.2735 -1.0122 -1.5184 -1.1429 -0.702 -0.3918 -2.6939 -2.0571 -3.151 -2.6449 -0.5878 -0.7673 -0.9306 -3.3633 -0.6694 -5.0122 0.1143 -0.6204 0.1959 -1.3551 0.1959 -1.6327 0 -0.2612 0.1143 -0.5878 0.2449 -0.7347 0.1306 -0.1306 0.2449 -0.4408 0.2612 -0.702 0 -0.3755 0.049 -0.3265 0.2612 0.3265 0.5224 1.5347 2.8245 3.1837 4.6694 3.3469 1.0449 0.0816 2.5469 -0.3918 3.6245 -1.1429 0.4245 -0.2939 0.8816 -0.6041 1.0449 -0.702 0.4408 -0.2776 1.3224 -1.2898 1.3224 -1.551 0.0163 -0.3755 0.6367 -1.4367 0.6531 -1.0939 0 0.3592 0.4082 0.3592 0.8 -0.0327 0.4082 -0.4082 1.551 -0.5551 2.6449 -0.3429 0.8816 0.1796 1.9755 0.6367 2.0735 0.8653 0.0327 0.0653 0.1633 0.1143 0.2776 0.1143 0.1143 0 0.2449 -0.049 0.2939 -0.1143 0.0327 -0.0816 0.049 -0.049 0.0327 0.0327 -0.0327 0.098 0.0327 0.7673 0.1469 1.4694 0.1959 1.4041 0.6857 2.4327 1.5184 3.2163 0.7347 0.702 3.1837 1.4367 4.9143 1.4694 0.7837 0.0163 1.6 -0.0327 1.8286 -0.0816 0.2286 -0.0653 0.3102 -0.0653 0.2122 -0.0163 -0.1143 0.049 -0.6531 0.6531 -1.1918 1.3388 -0.5388 0.6857 -1.0612 1.3388 -1.1429 1.4531 -0.098 0.1143 -0.1633 0.2449 -0.1633 0.3102 0 0.3265 -3.4776 3.7388 -4.4082 4.3265 -0.2286 0.1469 -0.6367 0.4735 -0.9143 0.7347 -0.849 0.7837 -2.5796 2.2857 -2.8082 2.4163 -0.1633 0.098 -2.2041 0.5878 -2.4163 0.5878 -0.0163 0 -0.1143 -0.1143 -0.2286 -0.2449z m1.8612 -5.1592 c0.3102 -0.2776 -0.098 -0.3755 -1.3714 -0.3265 -1.3061 0.0327 -1.9592 -0.1469 -1.9592 -0.5551 0 -0.2612 -0.5714 -0.4735 -0.8327 -0.3265 -0.2449 0.1633 -0.4735 0.849 -0.3755 1.1265 0.0653 0.1796 0.4245 0.2612 1.1755 0.3102 1.4041 0.0653 3.1673 -0.049 3.3633 -0.2286z"/>
  <path d="M36.3592 32.0816 c0.3265 -0.3102 0.6694 -0.5061 0.751 -0.4571 0.098 0.049 0.1143 0.0163 0.0653 -0.0653 -0.098 -0.1633 0.849 -1.0286 1.1102 -1.0286 0.049 0 0.2776 -0.1796 0.4898 -0.3918 0.1959 -0.2122 0.6531 -0.5551 1.0122 -0.7673 0.3429 -0.1959 0.6694 -0.4571 0.7347 -0.5388 0.0816 -0.1143 0.1306 -0.0816 0.1306 0.0816 0 0.1469 -0.1959 0.3592 -0.4408 0.4898 -0.2286 0.1306 -0.7673 0.5388 -1.1755 0.9143 -0.4082 0.3918 -0.8163 0.702 -0.8816 0.702 -0.0816 0 -0.3265 0.2286 -0.5551 0.4898 -0.2122 0.2776 -0.4735 0.4571 -0.5388 0.4082 -0.0816 -0.049 -0.3592 0.098 -0.6204 0.3265 -0.7184 0.6041 -0.7837 0.4898 -0.0816 -0.1633z"/>
  <path d="M26.498 32.049 c-0.1143 -0.0327 -0.2122 -0.2939 -0.2122 -0.5551 0 -0.3102 -0.098 -0.5061 -0.2776 -0.5714 -0.1633 -0.049 -0.4082 -0.1469 -0.5551 -0.2286 -0.1959 -0.098 -0.2286 -0.049 -0.1796 0.3592 l0.0816 0.4898 -0.4245 -0.2776 c-0.4082 -0.2612 -0.4408 -0.6694 -0.0653 -0.9143 0.0816 -0.0653 0.0816 -0.1469 -0.0327 -0.2122 -0.098 -0.0653 -0.1796 -0.0327 -0.1796 0.0816 0 0.1306 -0.0653 0.1306 -0.2449 -0.0163 -0.1469 -0.1143 -0.3102 -0.1633 -0.3592 -0.098 -0.0653 0.0653 -0.049 0.1633 0.0327 0.2286 0.2286 0.1633 0.2776 0.5224 0.0816 0.5224 -0.0816 0 -0.1633 -0.0816 -0.1633 -0.1633 0 -0.098 -0.2612 -0.2939 -0.5714 -0.4408 -0.3102 -0.1469 -0.5714 -0.3592 -0.5714 -0.4735 0 -0.2449 -0.4082 -0.4082 -0.7184 -0.2939 -0.1306 0.049 -0.2776 0 -0.3592 -0.1143 -0.0816 -0.1469 -0.0327 -0.1633 0.1469 -0.098 0.1306 0.049 0.3429 -0.0163 0.4408 -0.1469 0.1633 -0.1796 0.1633 -0.2286 0.0163 -0.2286 -0.1143 0 -0.1469 -0.0816 -0.0816 -0.1959 0.0816 -0.1143 0.0327 -0.1469 -0.1469 -0.0816 -0.2449 0.098 -0.4245 -0.0653 -1.2898 -1.2082 -0.1633 -0.1959 -0.2449 -0.4082 -0.1959 -0.4571 0.049 -0.049 0.1633 0.0327 0.2449 0.1959 0.098 0.1469 0.3755 0.3918 0.6531 0.5224 0.2776 0.1469 0.4408 0.3429 0.3755 0.4408 -0.0653 0.1143 -0.049 0.1306 0.0653 0.0653 0.1959 -0.1143 0.898 0.4735 1.0286 0.8653 0.049 0.1306 0.2612 0.2286 0.4735 0.2449 0.3755 0.0163 0.702 0.4245 0.3265 0.4245 -0.098 0 -0.1306 -0.0653 -0.0816 -0.1633 0.049 -0.0816 0.0163 -0.1633 -0.0653 -0.1633 -0.2122 0 -0.2286 0.1633 -0.0327 0.4571 0.098 0.1796 0.2122 0.1796 0.4408 0.049 0.2612 -0.1469 0.5878 -0.049 1.8449 0.5878 0.849 0.4408 1.5837 0.898 1.6163 1.0122 0.049 0.1306 0 0.1796 -0.098 0.1306 -0.0816 -0.0653 -0.1959 0.0327 -0.2449 0.2122 -0.0816 0.3102 -0.3102 0.3918 -0.7184 0.2122z"/>
  <path d="M20.098 28.8 c-0.4245 -0.2122 -0.8653 -0.9633 -1.0612 -1.7469 -0.0653 -0.3102 -0.049 -0.4245 0.0653 -0.3592 0.0816 0.049 0.1633 0.2286 0.1633 0.3755 0 0.1469 0.0816 0.3918 0.1633 0.5224 0.1143 0.1796 0.1306 0.1469 0.098 -0.1796 -0.0163 -0.2122 -0.098 -0.5061 -0.1633 -0.6204 -0.1796 -0.2776 0.0327 -0.4408 0.2612 -0.2122 0.1143 0.1143 0.1959 0.4898 0.2122 0.849 0 0.3592 0.0653 0.6531 0.1306 0.6531 0.0653 0 0.1633 0 0.2449 0 0.0653 0 0.0327 -0.0653 -0.0816 -0.1306 -0.1306 -0.0816 -0.1306 -0.1959 0.0327 -0.4082 0.1959 -0.2612 0.2286 -0.2449 0.6367 0.2122 0.4735 0.5714 0.5388 0.898 0.2286 1.0939 -0.3102 0.1796 -0.5061 0.1796 -0.9306 -0.049z m0.7837 -0.3102 c0.1796 0.2776 0.1959 0.2776 0.1143 0.0327 -0.049 -0.1633 -0.098 -0.3592 -0.098 -0.4408 0 -0.0653 -0.1143 -0.1633 -0.2449 -0.2286 -0.1959 -0.0653 -0.2449 0.049 -0.2286 0.5224 0.0163 0.5224 0.0327 0.5551 0.1306 0.1959 0.1143 -0.3918 0.1143 -0.3918 0.3265 -0.0816z"/>
  <path d="M40.9796 28.3265 c0 -0.1469 0.098 -0.1959 0.2449 -0.1469 0.1306 0.0653 0.1959 0.1633 0.1469 0.2449 -0.1306 0.2286 -0.3918 0.1633 -0.3918 -0.098z"/>
  <path d="M41.8449 27.5102 c0.0653 -0.1469 0.1143 -0.3429 0.1143 -0.4245 0 -0.0653 0.1143 -0.098 0.2449 -0.049 0.1633 0.0653 0.2449 0 0.2449 -0.2286 0 -0.1796 0.2286 -0.5224 0.4898 -0.7347 0.2776 -0.2286 0.4898 -0.5224 0.4898 -0.6531 0 -0.3102 0.7184 -0.9633 0.898 -0.8163 0.0653 0.0816 0.098 0.049 0.0327 -0.0327 -0.1143 -0.2122 0.1306 -0.6367 0.3755 -0.6694 0.0816 -0.0163 0.2449 -0.0327 0.3429 -0.049 0.0816 0 0.1143 -0.098 0.0653 -0.1796 -0.0653 -0.098 -0.1796 -0.1306 -0.2612 -0.0816 -0.0816 0.049 -0.098 0 -0.049 -0.1143 0.1143 -0.2449 2.8408 -2.6449 2.8408 -2.498 0 0.3265 -1.6163 2.1551 -1.8286 2.0735 -0.0816 -0.0163 -0.1306 0.098 -0.1306 0.2612 0 0.1469 -0.1633 0.4571 -0.3755 0.6857 -0.2122 0.2286 -0.4245 0.5388 -0.4898 0.702 -0.049 0.1469 -0.2122 0.2776 -0.3265 0.2776 -0.1306 0 -0.3102 0.1796 -0.4082 0.4082 -0.098 0.2122 -0.3755 0.4408 -0.6204 0.5061 -0.3102 0.0816 -0.3592 0.1469 -0.2122 0.2449 0.1796 0.098 0.098 0.2776 -0.3429 0.7184 -0.3102 0.3102 -0.7184 0.6531 -0.8816 0.751 -0.2612 0.1633 -0.2939 0.1469 -0.2122 -0.098z"/>
  <path d="M19.1184 25.9265 l-0.2286 -0.3755 0.3918 0.3265 c0.2122 0.1796 0.4245 0.3429 0.4571 0.3592 0.0327 0.0327 -0.0327 0.049 -0.1633 0.049 -0.1306 0 -0.3265 -0.1633 -0.4571 -0.3592z"/>
  <path d="M41.8939 21.3714 c-1.2245 -0.1959 -2.9714 -0.9306 -3.4122 -1.4204 -0.1306 -0.1469 -0.4408 -0.7347 -0.6694 -1.2898 -0.3592 -0.8816 -0.4245 -1.2571 -0.4245 -2.6939 0.0163 -2.1878 0.1796 -2.8735 0.849 -3.4612 0.2939 -0.2449 0.8327 -0.7347 1.1918 -1.0776 0.9143 -0.8653 2.0245 -1.1918 3.6245 -1.0939 2.0082 0.1143 2.498 0.3265 3.0367 1.2898 0.751 1.3388 1.1102 2.7429 1.1918 4.6694 0.0327 0.9633 0.098 2.0082 0.1469 2.3184 0.098 0.6204 -0.3102 1.3388 -1.0776 1.9265 -0.9959 0.7673 -2.8082 1.1102 -4.4571 0.8327z m-1.6 -4.751 c0.2449 -0.2449 0.2449 -0.8163 0 -1.3551 -0.3755 -0.8163 -1.1918 -0.2612 -1.2082 0.8653 -0.0163 0.6694 -0.0163 0.6857 0.4898 0.6857 0.2939 0 0.6041 -0.0816 0.7184 -0.1959z m3.951 -3.5265 c0 -0.1959 -1.4367 -0.8816 -1.6327 -0.7673 -0.2939 0.1796 -0.098 0.4571 0.5061 0.6694 0.6531 0.2286 1.1265 0.2776 1.1265 0.098z"/>
  <path d="M22.8245 18.9714 c-0.4082 -0.1469 -1.1918 -0.6204 -1.7143 -1.0286 -0.849 -0.6531 -0.9959 -0.8653 -1.2571 -1.7469 -0.3918 -1.2571 -0.2939 -2.0735 0.3755 -3.4776 0.5388 -1.1592 2.3347 -3.3469 3.3633 -4.1469 0.8163 -0.6041 1.3714 -0.5714 3.0041 0.1796 1.4694 0.6694 1.8122 0.9796 2.5959 2.2694 0.5878 0.9469 0.6041 1.0286 0.6041 2.5306 0 1.4041 -0.049 1.649 -0.4898 2.5143 -0.7184 1.4041 -2.2857 2.5796 -3.9837 2.9714 -1.1592 0.2776 -1.551 0.2612 -2.498 -0.0653z m4.1469 -2.498 c0.2776 -0.3592 0.2939 -0.5061 0.1469 -1.0776 -0.2612 -0.9633 -0.6204 -1.0122 -0.9959 -0.1633 -0.3755 0.8 -0.4082 1.2735 -0.1306 1.551 0.2939 0.2939 0.6204 0.1796 0.9796 -0.3102z m-3.0531 -3.9347 c0.3102 -0.2122 0.5714 -0.4735 0.5714 -0.5714 0 -0.2939 -0.6367 -0.2612 -0.751 0.0327 -0.0653 0.1306 -0.2286 0.2449 -0.3918 0.2449 -0.3592 0 -0.5551 0.2449 -0.4082 0.4898 0.1469 0.2449 0.3592 0.1959 0.9796 -0.1959z"/>
  <path d="M47.9837 16.1633 c0 -1.0939 -0.3265 -2.7429 -0.7184 -3.6735 -0.3102 -0.7184 0.3592 0.0816 0.8163 0.9796 0.4245 0.849 0.4408 1.0122 0.3592 2.2367 -0.1143 1.7633 -0.4408 2.0898 -0.4571 0.4571z"/>
  <path d="M36.5061 15.5429 c-0.3102 -0.5061 -2.3347 -1.1755 -3.5918 -1.1755 -0.8653 0 -2.0571 0.2939 -2.0571 0.5224 0 0.0653 -0.0653 0.1306 -0.1469 0.1306 -0.0816 0 -0.1143 -0.3755 -0.0653 -0.8653 0.1143 -1.1592 -0.4082 -2.8735 -1.2082 -3.9837 -0.6857 -0.9143 -1.7959 -1.7469 -3.0367 -2.2531 -0.4408 -0.1796 -0.8 -0.3918 -0.8 -0.4898 -0.0163 -0.0816 0.5714 -0.4082 1.3061 -0.702 3.0857 -1.2408 6.6449 -1.7959 9.9102 -1.502 2.0082 0.1796 5.9102 0.9306 6.2367 1.2082 0.2939 0.2286 1.2245 1.1755 1.4694 1.4694 0.2449 0.2939 0.898 1.8939 0.7673 1.8939 -0.0327 0 -0.7837 -0.0816 -1.6327 -0.1796 -2.351 -0.2612 -3.151 -0.049 -4.3918 1.1592 -0.5388 0.5224 -1.1592 0.9796 -1.3714 1.0122 -0.4898 0.0653 -0.8 0.849 -1.0612 2.6612 -0.1143 0.7837 -0.2449 1.2245 -0.3265 1.0939z"/>
  <path d="M20 11.5918 c0.2122 -0.7673 0.7673 -1.6163 0.9959 -1.5184 0.1796 0.0653 0.1469 0.1959 -0.1469 0.5714 -0.1959 0.2612 -0.4898 0.6857 -0.6531 0.9143 l-0.3102 0.4408 0.1143 -0.4082z"/>
  <path d="M21.551 9.502 c0 -0.1469 0.4898 -0.6204 1.0612 -1.0122 0.1796 -0.1306 0.0327 0.0816 -0.3265 0.4571 -0.6694 0.7184 -0.7347 0.7673 -0.7347 0.5551z"/>
</g>

</svg>